<svg viewBox="0 0 97 52" xmlns="http://www.w3.org/2000/svg" fill="none"><g clip-rule="evenodd" clip-path="url(#a)"><path fill="#000" d="M13.665 24.253h9.856l-3.338-10.544c-.626-1.944-1.514-5.633-1.514-5.633h-.104S17.628 11.765 17 13.71l-3.335 10.544ZM14.76 1.117h7.821l13.14 36.598h-7.873l-2.502-7.78H11.889l-2.448 7.78H1.776L14.76 1.117ZM67.64 1.114v36.603h27.583v-6.196h-20.02v-9.256h17.414v-6.093H75.202v-8.81h20.014V1.114H67.64ZM37.372 18.965h11.491V7.412h.833v11.553H61.24v.764H49.696v11.66h-.833v-11.66H37.372v-.764Z" fill-rule="evenodd"></path><path stroke-width=".649" stroke="#000" d="M37.372 18.965h11.491V7.412h.833v11.553H61.24v.764H49.696v11.66h-.833v-11.66H37.372v-.764Z"></path><path fill="#000" d="M23.07 50.528a15.165 15.165 0 0 0-.583-.961l-2.99-4.563-.014-.021h-.732v6.588h.67v-5.524c.122.203.395.654.62.994l2.983 4.512.01.018h.707v-6.588h-.67v5.545Z" fill-rule="evenodd"></path><path stroke-width=".519" stroke="#000" d="M23.07 50.528a15.165 15.165 0 0 0-.583-.961l-2.99-4.563-.014-.021h-.732v6.588h.67v-5.524c.122.203.395.654.62.994l2.983 4.512.01.018h.707v-6.588h-.67v5.545Z"></path><path fill="#000" d="M26.916 44.983v6.588h4.602v-.652H27.61v-2.447h3.491v-.616h-3.49v-2.248h3.807v-.625h-4.503Z" fill-rule="evenodd"></path><path stroke-width=".519" stroke="#000" d="M26.916 44.983v6.588h4.602v-.652H27.61v-2.447h3.491v-.616h-3.49v-2.248h3.807v-.625h-4.503Z"></path><path fill="#000" d="M33.766 44.983v.633h2.198v5.955h.696v-5.955h2.193v-.633h-5.087Z" fill-rule="evenodd"></path><path stroke-width=".519" stroke="#000" d="M33.766 44.983v.633h2.198v5.955h.696v-5.955h2.193v-.633h-5.087Z"></path><path fill="#000" d="M47.228 49.398c-.088.353-.208.883-.265 1.137-.06-.252-.181-.77-.267-1.11l-1.192-4.408-.007-.034h-.725l-1.196 4.452c-.094.337-.216.848-.275 1.098a35.868 35.868 0 0 0-.27-1.135l-1.127-4.381-.008-.034h-.719l1.742 6.557.01.031h.712l1.282-4.768c.075-.289.163-.686.213-.901.046.218.137.618.218.9l1.238 4.735.008.034h.685l1.773-6.531.016-.057h-.701l-1.145 4.415Z" fill-rule="evenodd"></path><path stroke-width=".519" stroke="#000" d="M47.228 49.398c-.088.353-.208.883-.265 1.137-.06-.252-.181-.77-.267-1.11l-1.192-4.408-.007-.034h-.725l-1.196 4.452c-.094.337-.216.848-.275 1.098a35.868 35.868 0 0 0-.27-1.135l-1.127-4.381-.008-.034h-.719l1.742 6.557.01.031h.712l1.282-4.768c.075-.289.163-.686.213-.901.046.218.137.618.218.9l1.238 4.735.008.034h.685l1.773-6.531.016-.057h-.701l-1.145 4.415Z"></path><path fill="#000" d="M54.268 44.848c-1.804 0-3.063 1.41-3.063 3.424 0 2.02 1.259 3.426 3.063 3.426 1.814 0 3.078-1.407 3.078-3.426 0-2.015-1.264-3.424-3.078-3.424Zm2.357 3.424c0 1.697-.927 2.793-2.357 2.793-1.42 0-2.337-1.096-2.337-2.793 0-1.695.917-2.79 2.337-2.79 1.43 0 2.357 1.095 2.357 2.79Z" fill-rule="evenodd"></path><path stroke-width=".519" stroke="#000" d="M54.268 44.848c-1.804 0-3.063 1.41-3.063 3.424 0 2.02 1.259 3.426 3.063 3.426 1.814 0 3.078-1.407 3.078-3.426 0-2.015-1.264-3.424-3.078-3.424Zm2.357 3.424c0 1.697-.927 2.793-2.357 2.793-1.42 0-2.337-1.096-2.337-2.793 0-1.695.917-2.79 2.337-2.79 1.43 0 2.357 1.095 2.357 2.79Z"></path><path fill="#000" d="M64.82 50.097c-.05-1.034-.284-1.503-.888-1.737.7-.252 1.04-.768 1.04-1.578 0-1.124-.706-1.8-1.89-1.8H60.14v6.589h.698v-2.9h1.937c.968 0 1.295.34 1.347 1.405.057 1.155.096 1.376.255 1.487l.012.008h.712v-.104l-.018-.013c-.146-.099-.229-.53-.263-1.357Zm-3.983-4.489h2.119c.9 0 1.3.38 1.3 1.228 0 .805-.475 1.228-1.38 1.228h-2.039v-2.456Z" fill-rule="evenodd"></path><path stroke-width=".519" stroke="#000" d="M64.82 50.097c-.05-1.034-.284-1.503-.888-1.737.7-.252 1.04-.768 1.04-1.578 0-1.124-.706-1.8-1.89-1.8H60.14v6.589h.698v-2.9h1.937c.968 0 1.295.34 1.347 1.405.057 1.155.096 1.376.255 1.487l.012.008h.712v-.104l-.018-.013c-.146-.099-.229-.53-.263-1.357Zm-3.983-4.489h2.119c.9 0 1.3.38 1.3 1.228 0 .805-.475 1.228-1.38 1.228h-2.039v-2.456Z"></path><path fill="#000" d="m71.882 44.983-3.447 3.403v-3.403h-.698v6.588h.698v-2.316l1.114-1.098 2.543 3.396.014.018h.835l-2.91-3.894 2.69-2.616.075-.078h-.914Z" fill-rule="evenodd"></path><path stroke-width=".519" stroke="#000" d="m71.882 44.983-3.447 3.403v-3.403h-.698v6.588h.698v-2.316l1.114-1.098 2.543 3.396.014.018h.835l-2.91-3.894 2.69-2.616.075-.078h-.914Z"></path><path fill="#000" d="M77.37 47.784c-1.17-.218-1.729-.452-1.729-1.184 0-.709.592-1.147 1.548-1.147.945 0 1.544.493 1.648 1.352l.002.04h.68l-.005-.048c-.132-1.235-.98-1.941-2.333-1.941-1.327 0-2.22.708-2.22 1.762 0 .823.356 1.438 2.082 1.778 1.366.278 1.965.493 1.965 1.376 0 .802-.636 1.321-1.62 1.321-1.196 0-1.92-.612-1.983-1.677l-.002-.041h-.696l.003.044c.08 1.423 1.08 2.269 2.67 2.269 1.397 0 2.334-.782 2.334-1.942 0-1.391-1.061-1.713-2.344-1.962Z" fill-rule="evenodd"></path><path stroke-width=".519" stroke="#000" d="M77.37 47.784c-1.17-.218-1.729-.452-1.729-1.184 0-.709.592-1.147 1.548-1.147.945 0 1.544.493 1.648 1.352l.002.04h.68l-.005-.048c-.132-1.235-.98-1.941-2.333-1.941-1.327 0-2.22.708-2.22 1.762 0 .823.356 1.438 2.082 1.778 1.366.278 1.965.493 1.965 1.376 0 .802-.636 1.321-1.62 1.321-1.196 0-1.92-.612-1.983-1.677l-.002-.041h-.696l.003.044c.08 1.423 1.08 2.269 2.67 2.269 1.397 0 2.334-.782 2.334-1.942 0-1.391-1.061-1.713-2.344-1.962Z"></path><path fill="#000" d="M82.138 44.871h.317l.247.867h.005l.246-.867h.322v1.137h-.205v-.87h-.008s-.046.18-.09.323l-.164.547h-.21l-.164-.547-.085-.322h-.008v.87h-.203V44.87Zm-1.126 0h.94v.187h-.359v.95h-.223v-.95h-.358v-.187Z" fill-rule="evenodd"></path></g><defs><clipPath id="a"><path d="M0 0h97v51.916H0z" transform="translate(0 .042)" fill="#fff"></path></clipPath></defs></svg>