<svg viewBox="0 0 118 55" xmlns="http://www.w3.org/2000/svg" fill="none"><path fill="#000" d="m117.7 32.5-1.5-2c-.3-.4-.6-.7-1.4-.2a11 11 0 0 1-6.2 2.3 7 7 0 0 1-4.7-1.5l1.6-.8a30 30 0 0 0 6.5-4.8c5.6-5.7 3.8-14.2-3-14.2-6.6 0-11.7 6.4-11.7 13.5 0 1 .1 2.6.6 4.2-.4.2-3 1.4-6 3.2-3-2.2-7.5-1.2-7.5-1.2 4.2-6 10.5-15.5 11-16.2.5-.6.4-1.1 0-2-.5-1-1-1.2-1.6-1.2H80.7c-.5 0-.8.2-1 .6l-.4 2.8c0 .6.5 1 1 1H90l-8.6 12.4-.2.1c-1.2 1.9-3.2 4.4-5.5 4.4-1.4 0-3.2-1-3.2-4.4 0-3.3 1.4-10.3 2.3-15.8.1-.6 0-1.1-1-1.1h-2.3c-.6 0-.9.3-1 .8 0 .8-.2 1.6-.4 2.4a6 6 0 0 0-5.6-3.5c-2.5 0-4.9 1-6.9 3-4.9 4.9-4 13-8.2 17.3-1.8 1.8-3.9 1.2-3.9-2.4 0-4.1 1.6-8.8 3.4-13.2.3-.7 0-1.4-.4-1.9-.5-.7-.6-1-1.5-1-1.3 0-3.5.8-7.8.8h-2.5v-1.3c0-.6-.1-1-.8-1h-2.2c-.8 0-1 .4-1 1-.4 2.6-1.1 12.3-6 17.2-.5.6-.9.8-.9.8 1.2-2.4 1.9-5.5 1.9-8 0-7-4-11.3-9.2-11.3a9 9 0 0 0-4.8 1.5l1.6-9.5c.2-1.1-.2-1.7-.5-2.2-.5-.8-.9-1.1-1.5-1.1H5.6c-.4 0-.7.3-.9.8 0 .6-.4 2-.4 2.7 0 .6.4.9.9.9h5.5L7.7 23C7 26.5 4.5 30.6.5 32c-.5.2-.7.6-.5 1.2.1.5.8 2 1 2.3.3.4.7.6 1.2.5a14.8 14.8 0 0 0 6.6-4.7c1.7 4 5.4 5.5 9.2 5.5 4.2 0 8.8-1.5 12-4.7a27 27 0 0 0 6-14.5l3 .2c2.7 0 4.8-.5 4.8-.5s-2.6 7-2.6 12c0 5.9 2.8 7.5 5.8 7.5 3.2 0 5.4-2.3 7-5.3.3 1 1 2 1.8 2.8a7.7 7.7 0 0 0 5.7 2.5c2.9 0 5.4-1.7 7.2-4.3.3 1.1.8 2 1.4 2.7 1 1 2.6 1.6 4.6 1.6 3.6 0 5.6-2.6 11.1-2.6.7 0 1.4 0 2 .3-2.6 1.5-5 3.2-6.5 4.7-4.5 4.5-4.7 10.6-1.7 13.6 3.6 3.6 8.7 1.8 12-1.4 3.7-3.8 4.8-11 2.6-16l5.4-2.6c1.6 2.3 4.4 4 8.8 4a15 15 0 0 0 9-3c.4-.4.5-1 .2-1.4ZM20.3 31a5 5 0 0 1-3.6 1.6c-1.1 0-2.2-.6-3-1.4-3-3-2.7-10.2 1-14 1.1-1 2.4-1.6 3.7-1.6 1.2 0 2.2.5 3.1 1.4 2.7 2.7 2.9 9.9-1.2 14Zm41.5 1.6c-3 0-5.1-3.9-4.5-8.6.6-4.7 3.7-8.5 6.8-8.5 3 0 4.9 3.3 4.7 7.5l-.2 1.8c-.9 4.3-3.8 7.8-6.8 7.8ZM88 49c-4.1 4.2-9.4-1.1-3.3-7.3 1.4-1.4 3.7-2.9 6-4.3 1.4 3.4.4 8.5-2.7 11.6Zm16.5-31.8c3-3 6.5-2.2 6.5.9 0 3-3.5 6.1-7.8 8.6l-1.3.7a11.8 11.8 0 0 1 2.6-10.2Z"></path></svg>