<svg viewBox="0 0 157 50" xmlns="http://www.w3.org/2000/svg" fill="none"><g fill="#000" clip-path="url(#a)"><path d="m156.335 30.952-.908 1.825-.914-1.825h-.453v2.615h.347v-2.072l.902 1.8h.238l.903-1.8v2.072h.346v-2.615h-.461ZM151.631 31.297h.814v2.27h.378v-2.27h.819v-.345h-2.011v.345Z" clip-rule="evenodd" fill-rule="evenodd"></path><path d="M151.585 35.581a.727.727 0 0 0-.719.247c-.573.616-.533 1.859-1.544 2.04-.782.139-1.719-.85-1.9-3.03a12.357 12.357 0 0 1 .671-4.842c.524-1.54 1.275-2.991 1.879-4.5.364-.865.642-1.763.831-2.682.266-1.375.206-2.923-.69-4.01-.505-.58-1.172-1-1.917-1.208-1.645-.49-3.372-.215-4.914.475a5.86 5.86 0 0 0-1.246.815c-.22.173-.538.512-.859.487-.507-.042-.682-2.003-3.518-2.003-3.327 0-4.831 5.976-5.527 8.87-1.166 4.848-2.527 4.723-3.229 4.61-.836-.138-1.12-1.494-1.126-2.215.015-1.944.419-3.617 1.565-6.127l.094-.206c.734-1.605 1.567-3.424.507-4.508a1.9 1.9 0 0 0-1.541-.549c-.427.034-1.238.122-1.696.487-1.533 1.228-1.587 3.345-1.768 4.643-.1.739-.241 1.33-.407 2.19-.55 2.81-1.676 6.653-3.673 6.67a1.92 1.92 0 0 1-1.57-.716c-.713-.908-.63-1.998-.518-3.073.083-.742.221-1.477.412-2.199.146-.626.345-1.24.593-1.833.305-.673.569-1.362.791-2.066a5.008 5.008 0 0 0 .335-2.255 3.097 3.097 0 0 0-.982-1.848c-.573-.523-1.433-.549-2.158-.387a2.634 2.634 0 0 0-1.444.831c-.259.31-.454.666-.573 1.05a.876.876 0 0 1-.618.566c-1.178.314-2.731.716-3.839.77-.636 0-1.009-.125-1.164-.388-.217-.365.106-2.097.685-4.33.834-3.05 2.358-7.95 3.217-10.212.038-.101.081-.223.132-.373C115.59.669 117.73 1 118.088 1c1.828 0 1.965 1.469 1.785 2.264-.181.795-.688 1.112-1.054 1.655a4.42 4.42 0 0 0-.742 1.72 2.471 2.471 0 0 0 .361 1.803 2.584 2.584 0 0 0 1.718.993 2.88 2.88 0 0 0 2.969-1.35 4 4 0 0 0 .458-2.92 5.858 5.858 0 0 0-1.432-2.645 6.417 6.417 0 0 0-2.04-1.543c-1.241-.566-2.722-.588-4.043-.263-.785.201-1.521.555-2.166 1.042-.889.7-1.662 1.532-2.292 2.467a28.837 28.837 0 0 0-2.527 4.477 64.332 64.332 0 0 0-2.429 5.914c-1.258 3.523-1.796 6.035-2.928 6.621-.59.306-1.215.589-1.811.886a14.457 14.457 0 0 0-3.097 2.068 21.436 21.436 0 0 0-4.816 6.149c-.229.444-1.355 1.78-2.865 1.927-2.747.283-3.217-2.187-3.114-3.076a6.357 6.357 0 0 1 .573-2.068 241.94 241.94 0 0 0 5.131-11.319c.287-.705 1.126-2.42 1.318-2.813a.143.143 0 0 1 .132-.082l1.865-.04a34.61 34.61 0 0 1 3.942.162c.35.034 1.284.127 1.51-.524a.714.714 0 0 0-.072-.62c-.263-.387-.859-.31-1.315-.211-1.635.35-1.604.322-4.796.283h-.86c-.142 0-.16-.068-.122-.199l.063-.212c.693-2.145 2.495-6.33.842-7.184-1.183-.612-3.283-.034-4.252 1.284a37.8 37.8 0 0 0-3.615 6.251.152.152 0 0 1-.138.088h-1.948c-1.106 0-2.484-.068-3.787-.181a8.354 8.354 0 0 0-.593-.026 5.968 5.968 0 0 0-2.072.351 3.91 3.91 0 0 0-2.146 1.947 2.403 2.403 0 0 0-.071 1.896 2.06 2.06 0 0 0 1.819 1.217h.267c.916 0 1.701-.312 2.151-.85a1.92 1.92 0 0 0 .375-1.638c-.08-.388.014-.792.258-1.106.481-.676 1.72-.778 2.427-.778.83 0 2.315.068 2.805.09a.12.12 0 0 1 .093.053c.02.031.025.07.013.106l-.152.385c-.126.325-.25.65-.373.976a75.874 75.874 0 0 0-.727 1.98c-.23.657-.43 1.305-.62 1.964-.188.66-.346 1.257-.492 1.893a28.964 28.964 0 0 0-.358 1.817c-.1.608-.17 1.152-.22 1.732-.052.58-.078 1.092-.078 1.638 0 .546.02 1.027.072 1.537 0 .09.017.18.028.283l.046.367c.26 1.381.373 2.468-.152 3.195-.573.807-2.094 1.528-3.535 1.528-1.009 0-1.561-.243-1.911-.478-1.519-1.024-1.29-2.83-.407-4.38.204-.357.436-.702.66-1.036.254-.382.518-.778.741-1.186a6.113 6.113 0 0 0 .754-3.848 2.73 2.73 0 0 0-.287-.914 2.55 2.55 0 0 0-2.355-1.35c-1.67.051-2.73 1-2.997 1.112-.515.166-1.041.294-1.575.385a27.6 27.6 0 0 1-2.642.36h-.329a.772.772 0 0 1-.528-.323c-.375-.628 2.192-10.374 2.192-10.374a87.36 87.36 0 0 1 1.72-5.184c.036-.101.08-.223.131-.373C75.858.669 77.999 1 78.356 1c1.829 0 1.966 1.469 1.783 2.264-.184.795-.685 1.112-1.052 1.655a4.35 4.35 0 0 0-.742 1.72 2.46 2.46 0 0 0 .361 1.803 2.585 2.585 0 0 0 1.72.993 2.858 2.858 0 0 0 2.964-1.35 3.97 3.97 0 0 0 .459-2.92A5.82 5.82 0 0 0 82.43 2.52 6.413 6.413 0 0 0 80.39.977C79.15.411 77.669.39 76.348.714a6.105 6.105 0 0 0-2.145 1.036c-.89.7-1.663 1.532-2.293 2.467a28.5 28.5 0 0 0-2.449 4.321s-2.42 5.58-3.785 9.678c0 .028-.02.07-.037.124-.172.611-.696 2.473-2.636 3.283h.026c-1.97.78-3.747 1.97-5.208 3.489l-.029.03c-.186.173-.287 0-.287-.169a7.683 7.683 0 0 0-1.266-4.847c-1.318-1.896-4.607-2.87-5.773-.283a2.592 2.592 0 0 0 .187 2.501c.825 1.217 2.24 1.313 3.466 1.8 1.066.422 1.584 1.752 1.476 2.875-.11 1.123-1 3.961-4.533 4.643a3.656 3.656 0 0 1-1.63-.093c-1.433-.376-2.312-2.015-2.621-3.37-.382-1.684-.18-3.274.129-4.992.209-1.151.593-2.187 1.432-3.019a18.133 18.133 0 0 0 4.79-7.057c1.774-4.581 2.292-9.182-.218-9.338-1.395-.088-3.667.399-5.855 4.007-3.381 5.563-3.21 8.681-4.384 15.011v.062c-.252 1.353-.51 2.756-.788 4.123-.2.988-1.008 4.327-2.89 4.318-3.175 0-.668-7.009.484-7.86 1.077-.793 1.816-2.25 1.67-3.586a2.56 2.56 0 0 0-.235-.832 1.596 1.596 0 0 0-.14-.283c-.338-.546-.949-.871-1.76-.936h-.194a2.127 2.127 0 0 0-.811.164c-.222.07-.436.165-.636.283a2.084 2.084 0 0 1-.86.204c-.644 0-1.432-.283-2.168-.538a13.33 13.33 0 0 0-2.92-.538c-1.269-.099-4.145.408-5.681 1.5-.493.28-1.02.5-1.567.65-1.433.394-1.948.55-3.215.55-.653 0-1.031-.122-1.189-.388-.535-.894 2.006-9.994 3.725-14.57.037-.102.08-.226.132-.376 1.432-4.09 3.57-3.755 3.93-3.755 1.828 0 1.966 1.468 1.782 2.264-.183.795-.684 1.109-1.051 1.652-.37.514-.623 1.101-.742 1.72-.119.625.01 1.27.36 1.803a2.585 2.585 0 0 0 1.72.993 2.987 2.987 0 0 0 1.719-.229 2.98 2.98 0 0 0 1.232-1.132c.522-.88.686-1.924.458-2.92a5.835 5.835 0 0 0-1.418-2.646A6.393 6.393 0 0 0 29.61.966C28.37.4 26.89.377 25.57.703c-.785.2-1.522.555-2.165 1.044-.889.7-1.662 1.53-2.292 2.465A28.923 28.923 0 0 0 18.596 8.7c-1.08 2.286-1.98 4.66-2.839 7.051-.29.823-.577 1.648-.86 2.476 0 .028-.02.07-.037.125-.171.61-.696 2.473-2.632 3.282-3.627 1.52-7.41 4.165-10.6 13.147-2.187 6.132-2.425 14.618 4.87 14.623 3.125 0 5.93-1.714 8.635-10.95 1.853-6.336 3.294-14.432 3.962-15.142.49-.512 1.699-.897 3.805-1.208h.071a.475.475 0 0 1 .381.195.457.457 0 0 1 .063.419c-.86 2.473-.765 5.51-.312 6.918a5.295 5.295 0 0 0 2.292 3.03c2.094 1.229 5.63 1.116 7.403-.636.286-.297.613-.744 1.077-.775.224 0 .43.178.628.387a4.389 4.389 0 0 0 3.375 1.447c1.847.04 2.925-1.104 3.922-1.096.997.009 1.719 1.28 5.274 1.415 1.318.054 3.544-.121 4.73-.699.331-.176.65-.371.957-.585a.203.203 0 0 1 .217-.006c.067.04.105.115.095.192-.129.842-.349 1.667-.656 2.462-2.186 6.132-2.108 14.624 4.87 14.624 3.124 0 5.931-1.712 8.636-10.95 1.527-5.216 2.865-13.173 3.627-14.087.444-.526 1.965-1.024 4.584-1.356h.069a.23.23 0 0 1 .18.077c.132.153.08.487.052.688v.093a20.027 20.027 0 0 0 .131 3.758 7.066 7.066 0 0 0 1.573 3.678 6.149 6.149 0 0 0 2.499 1.735c.879.328 1.747.334 2.675.317 2.278-.037 3.304-1.217 4.856-1.234.41 0 1.952 1.061 3.28 1.203 1.33.141 2.135.082 3.296-.566.177-.102.171.028.16.076-.011.048-.487 1.214-.75 1.955-2.187 6.132-2.11 14.624 4.87 14.624 3.125 0 5.93-1.712 8.635-10.95 1.853-6.336 3.294-14.432 3.962-15.142a.156.156 0 0 0 .02-.02c1.45-.889 5.315-1.78 5.753-1.302.438.479.137 1.44 0 2.431-.158.849-.479 1.678-.696 2.513-.272 1.035-.639 2.238-.416 3.308a3.924 3.924 0 0 0 1.418 2.354c.734.497 1.589.79 2.476.849.913.13 1.843.092 2.742-.113a6.353 6.353 0 0 0 2.429-1.359c.224-.226.482-.417.765-.566.453-.178.605.241.828.804.39.985 1.779 1.248 2.641 1.231a4.037 4.037 0 0 0 2.989-1.282c.767-.82 1.223-1.89 1.615-2.923.241-.636.456-1.284.659-1.935.814-2.564 1.505-6.766 3.08-6.766.926 0 .931.999.931 1.415v.085c.02 1.34-.358 2.906-.633 3.99-.318 1.25-.779 2.512-1.172 3.735-.329 1.033-.679 2.41.287 3.24.553.475 1.848.45 2.53.268 1.043-.283 1.446-1.307 1.664-2.292.116-.647.185-1.301.207-1.958.133-1.387.348-2.766.644-4.128.156-.903.382-1.792.676-2.66.507-1.361 1.315-2.677 2.928-2.677a2.294 2.294 0 0 1 2.126 1.338c.882 1.806.129 4.372-.559 6.115-1.111 2.81-3.108 7.01-.716 9.904a4.456 4.456 0 0 0 3.507 1.661c1.504.034 2.601-.427 3.438-1.715.15-.208.228-.46.221-.715a.72.72 0 0 0-.224-.465.538.538 0 0 0-.195-.099ZM92.338 10.745c1.206-3.508 2.08-5.894 2.968-5.721.808.147.573 1.791-.16 4.134-.41 1.287-.797 2.397-.912 2.728a.149.149 0 0 1-.143.099h-1.968a.153.153 0 0 1-.123-.063.149.149 0 0 1-.02-.135l.358-1.042Zm-2.579 7.024c.17-.51 1.493-4.123 1.72-4.765a.146.146 0 0 1 .14-.097h2.005a.15.15 0 0 1 .124.064c.029.04.035.092.016.137-.263.665-1.103 2.779-1.432 3.628-.573 1.52-1.87 5.184-2.84 4.861-.816-.266-.154-2.564.261-3.828h.006Zm-40.536-5.79c1.203-3.226 2.89-7.201 3.96-6.859 1.538.495-.287 5.787-1.07 7.835-1.38 3.614-3.758 6.26-4.391 6.265-.765.009.298-4.012 1.5-7.24ZM13.035 26.32l-.043.227c-.873 4.79-2.927 15.026-3.672 17.499-.588 1.955-1.625 4.281-4.18 4.151-4.1-.21-5.097-6.415-2.292-13.82 2.498-6.576 6.566-10.753 9.6-10.753h.04a.629.629 0 0 1 .493.221c.418.495.198 1.686.055 2.476Zm22.307-4.147a37.555 37.555 0 0 1-1.097 3.636c-.069.18-.138.36-.204.537-.573 1.565-1.131 3.042-2.822 3.492-.219.06-.445.09-.673.09-1.733-.005-3.042-1.762-3.042-3.338 0-1.74.286-2.85.86-4.412.437-1.188 1.784-3.112 4.05-3.395.263-.034.528-.05.794-.049.45 0 1.561.052 2.146.55.745.614.005 2.832-.012 2.889Zm28.478 4.137-.043.226c-.874 4.79-2.928 15.025-3.673 17.499-.573 1.955-1.533 4.326-4.091 4.196-4.097-.206-5.1-6.41-2.36-13.84 2.08-5.64 6.554-10.778 9.585-10.778h.043a.628.628 0 0 1 .493.22c.401.496.192 1.687.046 2.477Zm39.714 0-.043.226c-.874 4.79-2.928 15.025-3.673 17.499-.587 1.955-1.624 4.264-4.18 4.134-4.1-.21-5-6.347-2.26-13.778 2.08-5.64 6.543-10.778 9.577-10.778h.04a.62.62 0 0 1 .493.224c.41.498.192 1.689.046 2.478v-.005Z"></path></g><defs><clipPath id="a"><path d="M0 0h157v49.579H0z" transform="translate(0 .21)" fill="#fff"></path></clipPath></defs></svg>