<svg viewBox="0 0 176 52" xmlns="http://www.w3.org/2000/svg" fill="none"><g fill="#000" clip-path="url(#a)"><path d="M36.697 27.113a6.089 6.089 0 0 0-5.923 4.455h-7.838v-11.88h7.838a5.942 5.942 0 1 0 0-2.97h-7.838v-4.643a6.118 6.118 0 1 0-3.058 0v12.067H12.04a5.942 5.942 0 1 0 0 2.97h7.838v12.067a6.118 6.118 0 1 0 3.058 0v-4.642h7.838a6.094 6.094 0 1 0 5.923-7.425v.001Zm0-11.88a2.97 2.97 0 1 1-3.058 2.97 3.02 3.02 0 0 1 3.058-2.97ZM18.348 6.322a3.059 3.059 0 1 1 3.059 2.97 3.018 3.018 0 0 1-3.059-2.97ZM6.116 28.599a2.973 2.973 0 1 1 3.059-2.97 3.02 3.02 0 0 1-3.059 2.97Zm18.349 16.335a3.06 3.06 0 1 1-3.058-2.97 3.018 3.018 0 0 1 3.058 2.97Zm12.232-8.911a2.973 2.973 0 1 1 3.058-2.97 3.018 3.018 0 0 1-3.058 2.971v-.001ZM55.541 25.678a10.885 10.885 0 0 1 11.263-11.06 11.986 11.986 0 0 1 8.583 3.462l-2.794 3.061a8.2 8.2 0 0 0-5.79-2.397 6.903 6.903 0 0 0-.057 13.804 8.283 8.283 0 0 0 5.703-2.282v-2.917h-5.876v-3.725h9.765v8.78a13.244 13.244 0 0 1-9.707 4.245 10.677 10.677 0 0 1-11.09-10.97ZM91.03 35.405a8.655 8.655 0 0 1-4.637 1.298c-3.607 0-5.474-2.146-5.474-6.235v-6.525h-2.563v-3.422h2.597v-5.597h4.039v5.598h5.185v3.421h-5.185v6.264c0 1.826.691 2.784 2.217 2.784a5.275 5.275 0 0 0 2.622-.812l1.2 3.226ZM118.337 26.842v9.501h-4.061v-8.751c0-2.483-1.324-3.667-3.139-3.667a3.439 3.439 0 0 0-3.462 3.784v8.636h-4.061v-8.723c0-2.369-1.268-3.696-3.174-3.696a3.431 3.431 0 0 0-3.286 2.383 3.429 3.429 0 0 0-.142 1.43v8.607h-4.06v-15.74h3.974v2.254a5.304 5.304 0 0 1 4.78-2.686 4.906 4.906 0 0 1 4.61 2.773 6.642 6.642 0 0 1 5.616-2.773 6.14 6.14 0 0 1 6.405 6.668ZM121.824 14.927h3.945V22.6a5.77 5.77 0 0 1 4.954-2.493c3.174 0 6.107 2.115 6.107 6.577v9.649h-4.063v-8.548c0-2.55-1.324-3.912-3.283-3.912a3.628 3.628 0 0 0-3.606 3.999v8.46h-4.062l.008-21.405ZM140.113 29.693v-9.097h4.061v9.097a3.142 3.142 0 0 0 1.903 3.04 3.14 3.14 0 0 0 4.182-1.792c.149-.398.215-.823.195-1.248v-9.097h4.061v9.097c0 4.472-2.766 7.018-7.202 7.018-4.405 0-7.2-2.566-7.2-7.018ZM174.679 28.482a7.867 7.867 0 0 1-2.157 5.792 7.848 7.848 0 0 1-5.678 2.44 6.088 6.088 0 0 1-4.896-2.34v1.963h-3.946V14.92h4.061v7.493a6.064 6.064 0 0 1 4.781-2.224 7.908 7.908 0 0 1 7.835 8.292Zm-4.148-.03a4.33 4.33 0 0 0-2.812-3.848 4.324 4.324 0 0 0-4.643 1.07 4.335 4.335 0 0 0-.846 4.69 4.333 4.333 0 0 0 3.98 2.623 4.294 4.294 0 0 0 4.063-2.813 4.308 4.308 0 0 0 .255-1.724l.003.003Z"></path></g><defs><clipPath id="a"><path d="M0 0h176v51.934H0z" transform="translate(0 .033)" fill="#fff"></path></clipPath></defs></svg>