<svg viewBox="0 0 152 23" xmlns="http://www.w3.org/2000/svg" fill="none"><path fill="#000" d="M54.092.523c0 .042-.22.073-.515.073-.294 0-.514.032-.514.074 0 .04-.166.073-.368.073-.202 0-.368.033-.368.074 0 .04-.132.073-.294.073-.161 0-.294.033-.294.074 0 .04-.099.073-.22.073s-.22.033-.22.074c0 .04-.1.073-.221.073-.122 0-.22.033-.22.074 0 .04-.1.073-.221.073-.122 0-.221.033-.221.074 0 .04-.066.073-.147.073-.08 0-.147.034-.147.074 0 .04-.066.073-.147.073-.08 0-.147.034-.147.074 0 .04-.066.073-.147.073-.081 0-.147.034-.147.074 0 .04-.066.074-.147.074-.081 0-.147.033-.147.073 0 .04-.06.074-.131.074-.072 0-.178.066-.237.147-.058.08-.157.147-.22.147s-.163.066-.22.147c-.06.08-.153.147-.208.147-.056 0-.194.099-.307.22-.114.122-.243.22-.288.22-.107 0-1.624 1.518-1.624 1.624 0 .045-.1.175-.22.288-.122.113-.221.252-.221.307 0 .056-.066.15-.147.208-.08.058-.147.165-.147.237 0 .071-.033.13-.074.13-.04 0-.073.066-.073.147 0 .081-.033.147-.074.147-.04 0-.073.067-.073.147 0 .081-.033.147-.074.147-.04 0-.073.067-.073.147 0 .081-.033.148-.074.148-.04 0-.073.066-.073.147 0 .08-.033.147-.074.147-.04 0-.073.099-.073.22s-.033.22-.074.22c-.04 0-.073.067-.073.148 0 .08-.033.147-.074.147-.04 0-.073.099-.073.22 0 .122-.033.22-.074.22-.04 0-.073.1-.073.221 0 .122-.033.22-.074.22-.04 0-.073.166-.073.368 0 .203-.033.368-.074.368-.042 0-.073.22-.073.515 0 .294-.032.514-.074.514-.046 0-.073.466-.073 1.25s.027 1.25.073 1.25c.043 0 .074.245.074.588 0 .343.03.588.073.588.04 0 .074.132.074.294 0 .162.033.294.073.294.04 0 .074.133.074.294 0 .162.033.294.073.294.04 0 .074.1.074.22 0 .122.033.221.073.221.04 0 .074.066.074.147 0 .081.033.147.073.147.04 0 .074.1.074.221s.033.22.073.22c.04 0 .074.067.074.147 0 .081.033.148.073.148.04 0 .074.066.074.147 0 .08.033.147.073.147.04 0 .074.066.074.147 0 .08.033.147.073.147.04 0 .074.059.074.13 0 .072.066.179.147.237.08.059.147.158.147.22 0 .064.066.163.147.221.08.059.147.151.147.206 0 .055.132.227.294.383.162.155.294.318.294.363 0 .105.929 1.033 1.034 1.033.044 0 .208.133.363.294.155.162.327.294.382.294.055 0 .148.066.206.147.058.081.158.147.22.147.064 0 .163.067.221.147.058.081.165.148.237.148.072 0 .13.033.13.073 0 .04.06.073.132.073.072 0 .178.067.236.148.063.086.19.147.31.147.113 0 .205.033.205.073 0 .04.066.074.147.074.08 0 .147.033.147.073 0 .04.066.074.147.074.08 0 .147.033.147.073 0 .04.1.074.22.074.122 0 .221.033.221.073 0 .04.1.074.22.074.122 0 .221.033.221.073 0 .04.133.074.294.074.162 0 .294.033.294.073 0 .04.133.074.294.074.162 0 .294.033.294.073 0 .04.166.074.368.074.202 0 .368.033.368.073 0 .047.686.074 1.911.074s1.911-.027 1.911-.074c0-.04.197-.073.441-.073.246 0 .442-.033.442-.074 0-.04.132-.073.294-.073.161 0 .294-.033.294-.074 0-.04.132-.073.294-.073.161 0 .294-.033.294-.074 0-.04.1-.073.22-.073.122 0 .22-.033.22-.074 0-.04.1-.073.222-.073.12 0 .22-.033.22-.074 0-.04.1-.073.22-.073.122 0 .221-.033.221-.074 0-.04.066-.073.147-.073.081 0 .147-.034.147-.074 0-.04.066-.073.147-.073.081 0 .147-.034.147-.074 0-.04.066-.073.147-.073.081 0 .147-.034.147-.074 0-.04.067-.073.147-.073.081 0 .147-.034.147-.074 0-.04.06-.073.131-.073.072 0 .179-.067.237-.148.058-.08.165-.147.237-.147.072 0 .13-.033.13-.073 0-.04.06-.074.131-.074.072 0 .179-.066.237-.147.058-.08.152-.147.207-.147.056 0 .194-.099.308-.22.113-.122.243-.22.289-.22.124 0 .74-.642.74-.77 0-.062-.033-.113-.074-.113-.04 0-.073-.053-.073-.117 0-.065-.1-.21-.22-.324-.122-.113-.221-.246-.221-.294 0-.049-.1-.18-.22-.294-.122-.113-.221-.252-.221-.307 0-.056-.066-.15-.147-.208-.081-.058-.147-.157-.147-.22s-.066-.162-.147-.22c-.081-.06-.147-.15-.147-.203 0-.053-.117-.214-.26-.357l-.26-.26-.21.226c-.117.124-.257.226-.313.226-.056 0-.149.066-.207.147-.059.08-.158.147-.22.147-.064 0-.163.066-.221.147-.059.08-.165.147-.237.147-.072 0-.13.033-.13.073 0 .04-.067.074-.148.074-.08 0-.147.033-.147.073 0 .04-.066.074-.147.074-.08 0-.147.033-.147.073 0 .04-.066.074-.147.074-.08 0-.147.033-.147.073 0 .04-.066.074-.147.074-.08 0-.147.033-.147.073 0 .04-.066.074-.147.074-.081 0-.147.033-.147.073 0 .04-.066.074-.147.074-.081 0-.147.033-.147.073 0 .04-.1.074-.22.074-.122 0-.221.033-.221.073 0 .04-.1.074-.22.074-.122 0-.221.033-.221.073 0 .04-.133.074-.294.074-.162 0-.294.033-.294.073 0 .04-.166.074-.368.074-.202 0-.368.033-.368.073 0 .047-.49.074-1.323.074s-1.323-.027-1.323-.073c0-.04-.166-.074-.368-.074-.202 0-.367-.033-.367-.074 0-.04-.1-.073-.22-.073-.122 0-.221-.033-.221-.073 0-.041-.1-.074-.221-.074s-.22-.033-.22-.074c0-.04-.067-.073-.148-.073-.08 0-.147-.033-.147-.074 0-.04-.066-.073-.147-.073-.08 0-.147-.033-.147-.074 0-.04-.066-.073-.147-.073-.08 0-.147-.033-.147-.074 0-.04-.059-.073-.13-.073-.073 0-.179-.066-.237-.147-.059-.081-.152-.147-.208-.147-.055 0-.194-.1-.307-.22-.113-.122-.243-.221-.29-.221-.107 0-.592-.485-.592-.592 0-.045-.132-.209-.294-.364-.162-.155-.294-.327-.294-.382 0-.055-.066-.148-.147-.206-.081-.058-.147-.158-.147-.22 0-.064-.066-.163-.147-.221-.081-.058-.147-.165-.147-.237 0-.072-.033-.13-.074-.13-.04 0-.073-.1-.073-.221 0-.122-.033-.22-.074-.22-.04 0-.073-.1-.073-.221 0-.122-.033-.221-.074-.221-.04 0-.073-.1-.073-.22 0-.122-.033-.221-.074-.221-.04 0-.073-.165-.073-.368 0-.202-.033-.367-.074-.367-.046 0-.074-.466-.074-1.25s.028-1.25.074-1.25c.04 0 .074-.165.074-.367 0-.202.033-.368.073-.368.04 0 .074-.1.074-.22 0-.122.033-.221.073-.221.04 0 .074-.1.074-.22 0-.122.033-.221.073-.221.04 0 .074-.066.074-.147 0-.081.033-.147.073-.147.04 0 .074-.066.074-.147 0-.081.033-.147.073-.147.04 0 .074-.06.074-.131 0-.072.066-.178.147-.237.08-.058.147-.157.147-.22s.066-.163.147-.22c.08-.06.147-.15.147-.202 0-.124 1.219-1.343 1.343-1.343.052 0 .142-.066.2-.147.059-.08.158-.147.221-.147s.162-.066.22-.147c.059-.08.166-.147.237-.147.072 0 .131-.033.131-.073 0-.04.067-.074.147-.074.081 0 .147-.033.147-.073 0-.04.066-.074.147-.074.081 0 .147-.033.147-.073 0-.04.067-.074.148-.074.08 0 .146-.033.146-.073 0-.04.1-.074.221-.074s.22-.033.22-.073c0-.04.166-.074.368-.074.202 0 .368-.033.368-.073 0-.042.22-.074.514-.074.294 0 .515-.031.515-.073 0-.044.27-.074.662-.074s.661.03.661.074c0 .042.22.073.515.073.294 0 .514.032.514.074 0 .04.133.073.294.073.162 0 .295.033.295.074 0 .04.099.073.22.073s.22.033.22.074c0 .04.1.073.221.073s.22.033.22.074c0 .04.067.073.148.073.08 0 .147.033.147.074 0 .04.066.073.147.073.08 0 .147.033.147.074 0 .04.059.073.13.073.073 0 .18.066.237.147.059.081.158.147.221.147s.162.066.22.147c.059.081.151.147.206.147.055 0 .227.133.383.294.155.162.321.294.369.294.047 0 .179.1.292.221.114.121.243.22.289.22.045 0 .577-.496 1.182-1.102.604-.607 1.135-1.103 1.18-1.103.118 0 .29-.193.29-.325 0-.064-.033-.116-.074-.116-.04 0-.073-.05-.073-.112 0-.127-.763-.917-.887-.917-.044 0-.208-.133-.363-.294-.155-.162-.321-.294-.369-.294-.048 0-.18-.1-.292-.22-.114-.122-.26-.221-.324-.221-.065 0-.118-.034-.118-.074 0-.04-.059-.073-.13-.073-.072 0-.179-.067-.237-.147-.058-.081-.165-.148-.237-.148-.072 0-.13-.033-.13-.073 0-.04-.067-.074-.148-.074-.08 0-.147-.033-.147-.073 0-.04-.066-.074-.147-.074-.08 0-.147-.033-.147-.073 0-.04-.1-.074-.22-.074-.122 0-.221-.033-.221-.073 0-.04-.1-.074-.22-.074-.122 0-.221-.033-.221-.073 0-.04-.1-.074-.22-.074-.122 0-.221-.033-.221-.073 0-.04-.133-.074-.294-.074-.162 0-.294-.033-.294-.073 0-.04-.133-.074-.294-.074-.162 0-.294-.033-.294-.073 0-.043-.245-.074-.588-.074-.344 0-.589-.03-.589-.073 0-.047-.49-.074-1.323-.074s-1.323.027-1.323.074zm23.23 0c0 .043-.245.073-.588.073-.343 0-.588.03-.588.074 0 .04-.165.073-.367.073-.202 0-.368.033-.368.074 0 .04-.1.073-.22.073-.122 0-.22.033-.22.074 0 .04-.133.073-.295.073-.162 0-.294.033-.294.074 0 .04-.1.073-.22.073-.122 0-.221.033-.221.074 0 .04-.066.073-.147.073-.081 0-.147.033-.147.074 0 .04-.1.073-.22.073-.122 0-.221.034-.221.074 0 .04-.066.073-.147.073-.081 0-.147.034-.147.074 0 .04-.067.073-.147.073-.081 0-.147.034-.147.074 0 .04-.06.074-.131.074-.072 0-.179.066-.237.147-.058.08-.165.147-.237.147-.072 0-.13.033-.13.073 0 .04-.053.074-.118.074s-.21.099-.324.22c-.113.121-.245.22-.294.22-.048 0-.18.1-.294.221-.113.122-.243.22-.288.22-.107 0-1.182 1.076-1.182 1.183 0 .045-.1.175-.22.288-.122.113-.221.246-.221.294 0 .049-.1.18-.22.294-.122.114-.221.252-.221.308 0 .055-.066.149-.147.207-.081.058-.147.165-.147.237 0 .072-.033.13-.074.13-.04 0-.073.067-.073.147 0 .081-.033.147-.074.147-.04 0-.073.1-.073.221s-.033.22-.074.22c-.04 0-.073.067-.073.148 0 .08-.034.147-.074.147-.04 0-.073.099-.073.22s-.034.22-.074.22c-.04 0-.073.067-.073.148 0 .08-.033.147-.074.147-.04 0-.073.132-.073.294 0 .162-.034.294-.074.294-.04 0-.074.1-.074.22 0 .122-.033.221-.073.221-.04 0-.073.165-.073.368 0 .202-.034.367-.074.367-.047 0-.074.71-.074 1.985 0 1.274.027 1.985.074 1.985.04 0 .074.165.074.367 0 .203.032.368.073.368.04 0 .073.1.073.22 0 .122.034.221.074.221.04 0 .073.133.073.294 0 .162.034.294.074.294.04 0 .074.1.074.22 0 .122.033.221.073.221.04 0 .074.1.074.22 0 .122.033.221.073.221.04 0 .074.067.074.148 0 .08.033.146.073.146.04 0 .074.067.074.148 0 .08.033.147.073.147.04 0 .074.066.074.147 0 .08.033.147.073.147.04 0 .074.059.074.13 0 .072.066.179.147.237.08.059.147.165.147.237 0 .072.033.13.073.13.04 0 .074.054.074.118 0 .065.099.21.22.324.122.113.22.243.22.287 0 .107 1.665 1.771 1.772 1.771.045 0 .174.1.287.22.114.122.252.221.308.221.055 0 .149.067.207.147.058.081.165.147.237.147.072 0 .13.034.13.074 0 .04.06.073.131.073.072 0 .179.067.237.147.058.081.165.148.237.148.072 0 .13.033.13.073 0 .04.067.074.148.074.08 0 .147.033.147.073 0 .04.099.074.22.074s.22.033.22.073c0 .04.067.074.148.074.08 0 .147.033.147.073 0 .04.1.074.22.074.122 0 .22.033.22.073 0 .04.1.074.222.074.12 0 .22.033.22.073 0 .04.132.074.294.074.162 0 .294.033.294.073 0 .04.133.074.294.074.162 0 .294.033.294.073 0 .04.166.074.368.074.202 0 .367.033.367.073 0 .048.711.074 1.985.074 1.275 0 1.985-.026 1.985-.074 0-.04.166-.073.368-.073.202 0 .367-.033.367-.074 0-.04.133-.073.294-.073.162 0 .294-.033.294-.074 0-.04.133-.073.295-.073.161 0 .294-.033.294-.074 0-.04.099-.073.22-.073.122 0 .22-.033.22-.074 0-.04.1-.073.221-.073.122 0 .22-.033.22-.074 0-.04.1-.073.221-.073.122 0 .22-.033.22-.074 0-.04.067-.073.148-.073.08 0 .147-.034.147-.074 0-.04.066-.073.147-.073.08 0 .147-.034.147-.074 0-.04.059-.073.13-.073.073 0 .18-.067.238-.148.058-.08.164-.146.236-.146.072 0 .131-.034.131-.074 0-.04.06-.074.131-.074.072 0 .178-.066.237-.147.058-.08.151-.147.207-.147.056 0 .194-.099.307-.22.114-.121.243-.22.288-.22.106 0 1.624-1.517 1.624-1.623 0-.044.132-.207.294-.363.162-.155.294-.334.294-.398s.033-.116.073-.116c.04 0 .074-.06.074-.131 0-.072.066-.178.147-.237.08-.058.147-.165.147-.237 0-.071.033-.13.073-.13.04 0 .074-.066.074-.147 0-.081.033-.147.074-.147.04 0 .073-.067.073-.147 0-.081.033-.148.073-.148.041 0 .074-.099.074-.22s.033-.22.074-.22c.04 0 .073-.067.073-.148 0-.08.033-.147.074-.147.04 0 .073-.099.073-.22s.033-.22.074-.22c.04 0 .073-.1.073-.221 0-.122.033-.22.074-.22.04 0 .073-.133.073-.295 0-.162.033-.294.074-.294.04 0 .073-.165.073-.367 0-.203.033-.368.074-.368.047 0 .073-.686.073-1.912 0-1.225-.026-1.91-.073-1.91-.041 0-.074-.197-.074-.442s-.032-.441-.073-.441c-.04 0-.074-.132-.074-.294 0-.162-.033-.294-.073-.294-.04 0-.074-.1-.074-.22 0-.122-.033-.221-.073-.221-.04 0-.074-.066-.074-.147 0-.081-.033-.147-.073-.147-.04 0-.074-.1-.074-.22 0-.122-.033-.221-.073-.221-.04 0-.074-.067-.074-.147 0-.081-.033-.147-.074-.147-.04 0-.073-.067-.073-.147 0-.081-.033-.148-.073-.148-.04 0-.074-.066-.074-.147 0-.08-.033-.147-.073-.147-.041 0-.074-.066-.074-.147 0-.08-.033-.147-.074-.147-.04 0-.073-.066-.073-.147 0-.08-.033-.147-.074-.147-.04 0-.073-.053-.073-.117 0-.065-.1-.21-.22-.324-.122-.113-.221-.244-.221-.291 0-.047-.166-.247-.368-.444-.202-.197-.367-.394-.367-.438 0-.105-.782-.885-.888-.885-.046 0-.175-.1-.289-.22-.113-.122-.251-.221-.307-.221-.056 0-.149-.066-.207-.147-.058-.081-.158-.147-.22-.147-.064 0-.163-.067-.221-.147-.059-.081-.158-.147-.22-.147-.064 0-.163-.067-.221-.147-.059-.081-.165-.147-.237-.147-.072 0-.131-.034-.131-.074 0-.04-.066-.074-.147-.074-.08 0-.147-.033-.147-.073 0-.04-.066-.074-.147-.074-.08 0-.147-.033-.147-.073 0-.04-.1-.074-.22-.074-.122 0-.221-.033-.221-.073 0-.04-.066-.074-.147-.074-.081 0-.147-.033-.147-.073 0-.04-.1-.074-.22-.074-.122 0-.221-.033-.221-.073 0-.04-.133-.074-.294-.074-.162 0-.294-.033-.294-.073 0-.04-.1-.074-.221-.074s-.22-.033-.22-.073c0-.04-.166-.074-.368-.074-.202 0-.368-.033-.368-.073 0-.043-.245-.074-.588-.074-.343 0-.588-.03-.588-.073 0-.046-.466-.074-1.25-.074s-1.25.028-1.25.074zm23.084 0c0 .042-.22.073-.514.073-.294 0-.515.032-.515.074 0 .04-.165.073-.367.073-.203 0-.368.033-.368.074 0 .04-.1.073-.22.073-.122 0-.221.033-.221.074 0 .04-.1.073-.22.073-.122 0-.221.033-.221.074 0 .04-.066.073-.147.073-.081 0-.147.033-.147.074 0 .04-.1.073-.22.073-.122 0-.221.033-.221.074 0 .04-.06.073-.131.073-.072 0-.179.067-.237.147-.058.081-.157.147-.22.147s-.163.067-.221.148c-.058.08-.149.147-.201.147-.053 0-.343.247-.646.55-.302.302-.55.593-.55.645 0 .053-.066.143-.147.201-.08.059-.147.158-.147.22 0 .064-.066.163-.147.221-.08.059-.147.165-.147.237 0 .072-.033.131-.073.131-.04 0-.074.1-.074.22 0 .122-.033.221-.074.221-.04 0-.073.1-.073.22 0 .122-.033.221-.073.221-.041 0-.074.133-.074.294 0 .162-.033.294-.074.294-.045 0-.073.441-.073 1.177 0 .735.028 1.176.073 1.176.04 0 .074.132.074.294 0 .162.033.294.073.294.04 0 .074.1.074.22 0 .122.033.221.073.221.04 0 .074.059.074.13 0 .073.066.18.147.238.08.058.147.151.147.207 0 .056.1.194.22.307.122.114.221.243.221.289 0 .115.637.74.754.74.053 0 .144.067.202.147.058.081.157.147.22.147s.163.067.221.147c.058.081.165.147.237.147.072 0 .13.034.13.074 0 .04.067.074.148.074.08 0 .147.033.147.073 0 .04.066.074.147.074.08 0 .147.033.147.073 0 .04.066.074.147.074.08 0 .147.033.147.073 0 .04.066.074.147.074.08 0 .147.033.147.073 0 .04.099.074.22.074.122 0 .22.033.22.073 0 .04.1.074.221.074.122 0 .22.033.22.073 0 .04.1.074.221.074.122 0 .221.033.221.073 0 .04.1.074.22.074.122 0 .221.033.221.073 0 .04.1.074.22.074.122 0 .221.033.221.073 0 .04.099.074.221.074.121 0 .22.033.22.073 0 .04.1.074.221.074s.22.033.22.073c0 .04.1.074.221.074s.22.033.22.073c0 .04.1.074.221.074s.221.033.221.073c0 .04.099.074.22.074s.221.033.221.073c0 .04.099.074.22.074.122 0 .221.033.221.073 0 .04.099.074.22.074.122 0 .221.033.221.073 0 .04.066.074.147.074.081 0 .147.033.147.074 0 .04.099.073.22.073.122 0 .221.033.221.074 0 .04.059.073.131.073.072 0 .178.066.237.147.058.081.149.147.201.147.134 0 .901.781.901.918 0 .061.033.111.074.111.04 0 .073.1.073.22 0 .122.033.221.074.221.042 0 .073.221.073.515 0 .294-.031.515-.073.515-.041 0-.074.099-.074.22s-.033.22-.073.22c-.041 0-.074.06-.074.131 0 .073-.066.179-.147.237-.081.059-.147.151-.147.206 0 .128-.181.309-.309.309-.055 0-.147.066-.205.147-.059.08-.165.147-.237.147-.072 0-.131.033-.131.073 0 .04-.099.074-.22.074-.122 0-.221.033-.221.073 0 .041-.132.074-.294.074-.162 0-.294.033-.294.074 0 .041-.221.073-.515.073-.294 0-.514.032-.514.074 0 .042-.221.073-.515.073-.294 0-.515-.031-.515-.073 0-.044-.269-.074-.661-.074s-.662-.03-.662-.073c0-.04-.165-.074-.367-.074-.203 0-.368-.033-.368-.073 0-.04-.132-.074-.294-.074-.162 0-.294-.033-.294-.074 0-.04-.132-.073-.294-.073-.162 0-.294-.033-.294-.073 0-.041-.1-.074-.22-.074-.122 0-.221-.033-.221-.074 0-.04-.067-.073-.147-.073-.081 0-.147-.033-.147-.074 0-.04-.067-.073-.147-.073-.081 0-.147-.033-.147-.074 0-.04-.067-.073-.147-.073-.081 0-.148-.033-.148-.074 0-.04-.066-.073-.147-.073-.08 0-.147-.033-.147-.074 0-.04-.066-.073-.147-.073-.08 0-.147-.033-.147-.074 0-.04-.066-.073-.147-.073-.08 0-.147-.033-.147-.074 0-.04-.059-.073-.13-.073-.072 0-.179-.066-.237-.147-.059-.081-.165-.147-.237-.147-.072 0-.13-.033-.13-.074 0-.04-.067-.073-.148-.073-.098 0-.147.049-.147.147 0 .08-.033.147-.073.147-.04 0-.074.066-.074.147 0 .08-.033.147-.073.147-.04 0-.074.099-.074.22 0 .122-.033.22-.073.22-.04 0-.074.067-.074.148 0 .08-.033.147-.074.147-.04 0-.073.1-.073.22 0 .122-.033.221-.073.221-.041 0-.074.066-.074.147 0 .08-.033.147-.074.147-.04 0-.073.1-.073.22 0 .122-.033.221-.074.221-.04 0-.073.1-.073.22 0 .122-.033.221-.074.221-.04 0-.073.1-.073.22 0 .154.036.221.117.221.065 0 .21.1.324.22.113.122.259.221.323.221.065 0 .118.034.118.074 0 .04.059.073.13.073.073 0 .18.067.238.148.058.08.164.146.236.146.072 0 .131.034.131.074 0 .04.066.074.147.074.081 0 .147.033.147.073 0 .04.066.074.147.074.081 0 .147.033.147.073 0 .04.067.074.147.074.081 0 .147.033.147.073 0 .04.1.074.22.074.122 0 .222.033.222.073 0 .04.099.074.22.074s.22.033.22.073c0 .04.1.074.221.074s.22.033.22.073c0 .04.133.074.295.074.161 0 .294.033.294.073 0 .04.165.074.367.074.203 0 .368.033.368.073 0 .041.196.074.441.074s.441.032.441.073c0 .047.686.074 1.911.074 1.226 0 1.912-.027 1.912-.074 0-.04.196-.073.441-.073s.441-.033.441-.074c0-.04.132-.073.294-.073.162 0 .294-.033.294-.074 0-.04.099-.073.221-.073.121 0 .22-.033.22-.074 0-.04.1-.073.221-.073s.22-.033.22-.074c0-.04.067-.073.147-.073.081 0 .147-.033.147-.074 0-.04.1-.073.221-.073s.221-.033.221-.074c0-.04.058-.073.13-.073.072 0 .179-.067.237-.147.058-.081.158-.147.221-.147s.162-.067.22-.148c.058-.08.152-.146.207-.146.056 0 .195-.1.308-.221.113-.121.243-.22.289-.22.108 0 .593-.485.593-.593 0-.046.099-.177.221-.29.121-.113.22-.251.22-.307 0-.056.066-.15.147-.207.081-.059.147-.165.147-.237 0-.072.033-.13.074-.13.04 0 .073-.067.073-.148 0-.08.033-.147.074-.147.04 0 .073-.066.073-.147 0-.08.033-.147.074-.147.04 0 .073-.1.073-.22 0-.122.033-.221.074-.221.041 0 .073-.196.073-.441s.033-.441.074-.441c.044 0 .073-.294.073-.735 0-.442-.029-.736-.073-.736-.041 0-.074-.196-.074-.44 0-.246-.032-.442-.073-.442-.041 0-.074-.132-.074-.294 0-.162-.033-.294-.073-.294-.041 0-.074-.066-.074-.147 0-.08-.033-.147-.073-.147-.041 0-.074-.066-.074-.147 0-.08-.033-.147-.073-.147-.041 0-.074-.066-.074-.147 0-.081-.033-.147-.073-.147-.041 0-.074-.052-.074-.115s-.165-.276-.367-.473c-.203-.197-.368-.396-.368-.442 0-.109-.186-.293-.296-.293-.047 0-.179-.1-.292-.22-.113-.122-.252-.222-.307-.222-.056 0-.149-.066-.208-.146-.058-.081-.165-.148-.237-.148-.071 0-.13-.033-.13-.073 0-.04-.067-.074-.147-.074-.081 0-.147-.033-.147-.073 0-.04-.067-.074-.147-.074-.081 0-.147-.033-.147-.073 0-.04-.067-.074-.148-.074-.08 0-.147-.033-.147-.073 0-.04-.066-.074-.147-.074-.08 0-.147-.033-.147-.073 0-.04-.099-.074-.22-.074s-.221-.033-.221-.073c0-.04-.099-.074-.22-.074-.122 0-.221-.033-.221-.073 0-.04-.066-.074-.147-.074-.081 0-.147-.033-.147-.073 0-.04-.099-.074-.22-.074-.122 0-.221-.033-.221-.073 0-.04-.099-.074-.22-.074-.122 0-.221-.033-.221-.073 0-.04-.099-.074-.221-.074-.121 0-.22-.033-.22-.073 0-.04-.132-.074-.294-.074-.162 0-.294-.033-.294-.073 0-.04-.099-.074-.221-.074-.121 0-.22-.033-.22-.073 0-.04-.133-.074-.294-.074-.162 0-.294-.033-.294-.073 0-.04-.1-.074-.221-.074s-.221-.033-.221-.073c0-.04-.099-.074-.22-.074s-.221-.033-.221-.074c0-.04-.099-.073-.22-.073s-.221-.033-.221-.074c0-.04-.066-.073-.147-.073-.081 0-.147-.033-.147-.074 0-.04-.066-.073-.147-.073-.08 0-.147-.033-.147-.074 0-.04-.066-.073-.147-.073-.08 0-.147-.033-.147-.074 0-.04-.05-.073-.112-.073-.145 0-1.064-.92-1.064-1.065 0-.061-.033-.111-.074-.111-.044 0-.073-.314-.073-.793 0-.708.016-.804.147-.898.08-.059.147-.15.147-.203 0-.134.485-.606.622-.606.062 0 .113-.033.113-.073 0-.04.066-.074.147-.074.08 0 .147-.033.147-.073 0-.04.1-.074.22-.074.122 0 .221-.033.221-.073 0-.04.166-.074.368-.074.202 0 .367-.033.367-.074 0-.046.49-.073 1.324-.073.833 0 1.323.027 1.323.073 0 .041.196.074.441.074s.441.033.441.074c0 .04.132.073.294.073.162 0 .294.033.294.074 0 .04.099.073.221.073.121 0 .22.033.22.074 0 .04.1.073.221.073s.22.033.22.074c0 .04.067.073.147.073.081 0 .147.033.147.074 0 .04.067.073.147.073.081 0 .147.033.147.074 0 .04.067.073.148.073.08 0 .147.033.147.074 0 .04.066.073.147.073.08 0 .147.033.147.074 0 .04.066.073.147.073.081 0 .147.033.147.074 0 .04.059.073.13.073.072 0 .179.066.237.147.059.081.158.147.221.147s.162.066.22.147c.059.081.165.147.237.147.082 0 .131-.055.131-.147 0-.08.033-.147.073-.147.041 0 .074-.099.074-.22 0-.122.033-.22.073-.22.041 0 .074-.067.074-.148 0-.08.033-.147.073-.147.041 0 .074-.066.074-.147 0-.08.033-.147.074-.147.04 0 .073-.066.073-.147 0-.08.033-.147.074-.147.04 0 .073-.059.073-.13 0-.073.066-.18.147-.238.081-.058.147-.164.147-.236 0-.072.033-.131.074-.131.04 0 .073-.066.073-.147 0-.081.033-.147.074-.147.04 0 .073-.066.073-.147 0-.081.033-.147.074-.147.04 0 .073-.052.073-.116 0-.135-.173-.325-.296-.325-.047 0-.179-.1-.292-.22-.113-.122-.259-.221-.323-.221-.065 0-.118-.033-.118-.074 0-.04-.059-.073-.131-.073-.072 0-.178-.067-.237-.147-.058-.081-.164-.147-.236-.147-.072 0-.131-.034-.131-.074 0-.04-.066-.074-.147-.074-.081 0-.147-.033-.147-.073 0-.04-.099-.074-.221-.074-.121 0-.22-.033-.22-.073 0-.04-.066-.074-.147-.074-.081 0-.147-.033-.147-.073 0-.04-.1-.074-.221-.074s-.22-.033-.22-.073c0-.04-.1-.074-.221-.074s-.221-.033-.221-.073c0-.04-.132-.074-.294-.074-.161 0-.294-.033-.294-.073 0-.04-.132-.074-.294-.074-.161 0-.294-.033-.294-.073 0-.04-.132-.074-.294-.074-.162 0-.294-.033-.294-.073 0-.043-.245-.074-.588-.074-.343 0-.588-.03-.588-.073 0-.047-.49-.074-1.323-.074-.834 0-1.324.027-1.324.074zM.426 11.697v10.807h15.438v-3.381H4.396V10.11c0-7.711-.016-9.026-.105-9.116C4.205.91 3.837.89 2.306.89H.426v10.807zm27.66-10.621a.638.638 0 0 0-.166.363c0 .103-.033.186-.073.186-.04 0-.074.067-.074.147 0 .081-.033.148-.073.148-.04 0-.074.066-.074.147 0 .08-.033.147-.073.147-.04 0-.074.066-.074.147 0 .08-.033.147-.073.147-.04 0-.074.099-.074.22s-.033.22-.073.22c-.04 0-.074.067-.074.148 0 .08-.033.147-.073.147-.04 0-.074.066-.074.147 0 .08-.033.147-.073.147-.04 0-.074.066-.074.147 0 .08-.033.147-.073.147-.04 0-.074.1-.074.22 0 .122-.033.221-.073.221-.04 0-.074.066-.074.147 0 .08-.033.147-.073.147-.04 0-.074.066-.074.147 0 .081-.033.147-.073.147-.04 0-.074.066-.074.147 0 .081-.033.147-.073.147-.04 0-.074.1-.074.22 0 .122-.033.221-.073.221-.04 0-.074.066-.074.147 0 .081-.033.147-.073.147-.04 0-.074.066-.074.147 0 .081-.033.147-.073.147-.04 0-.074.067-.074.147 0 .081-.033.147-.073.147-.041 0-.074.1-.074.221s-.033.22-.074.22c-.04 0-.073.067-.073.148 0 .08-.033.147-.074.147-.04 0-.073.066-.073.147 0 .08-.033.147-.074.147-.04 0-.073.092-.073.204 0 .12-.06.248-.147.31a.402.402 0 0 0-.147.31c0 .113-.033.205-.074.205-.04 0-.073.066-.073.147 0 .08-.033.147-.074.147-.04 0-.073.066-.073.147 0 .08-.033.147-.074.147-.04 0-.073.066-.073.147 0 .08-.033.147-.074.147-.04 0-.073.1-.073.22 0 .122-.033.221-.074.221-.04 0-.073.066-.073.147 0 .081-.033.147-.074.147-.04 0-.073.1-.073.22 0 .122-.034.221-.074.221-.04 0-.073.067-.073.147 0 .081-.034.147-.074.147-.04 0-.073.066-.073.147 0 .081-.034.147-.074.147-.04 0-.073.067-.073.147 0 .081-.034.147-.074.147-.04 0-.073.067-.073.147 0 .081-.034.148-.074.148-.04 0-.074.066-.074.147 0 .08-.033.147-.073.147-.04 0-.074.066-.074.147 0 .08-.033.147-.073.147-.04 0-.074.099-.074.22s-.033.22-.073.22c-.04 0-.074.067-.074.148 0 .08-.033.147-.073.147-.04 0-.074.1-.074.22 0 .122-.033.22-.073.22-.04 0-.074.067-.074.148 0 .08-.033.147-.073.147-.04 0-.074.066-.074.147 0 .08-.033.147-.073.147-.04 0-.074.066-.074.147 0 .08-.033.147-.073.147-.04 0-.074.1-.074.22 0 .122-.033.221-.073.221-.04 0-.074.066-.074.147 0 .081-.033.147-.073.147-.04 0-.074.066-.074.147 0 .081-.033.147-.073.147-.04 0-.074.066-.074.147 0 .081-.033.147-.073.147-.04 0-.074.066-.074.147 0 .081-.033.147-.073.147-.04 0-.074.1-.074.221s-.033.22-.073.22c-.04 0-.074.067-.074.147 0 .081-.033.148-.073.148-.04 0-.074.066-.074.147 0 .08-.033.147-.074.147-.04 0-.073.099-.073.22 0 .122-.033.22-.073.22-.041 0-.074.067-.074.148 0 .08-.033.147-.074.147-.04 0-.073.066-.073.147 0 .08-.033.147-.074.147-.04 0-.073.066-.073.147 0 .08-.033.147-.074.147-.04 0-.073.1-.073.22 0 .122-.033.221-.074.221-.04 0-.073.066-.073.147 0 .08-.033.147-.074.147-.04 0-.073.066-.073.147 0 .08-.033.147-.074.147-.04 0-.073.066-.073.147 0 .081-.033.147-.074.147-.04 0-.073.066-.073.147 0 .081-.033.147-.074.147-.04 0-.073.1-.073.22 0 .122-.033.221-.074.221-.04 0-.073.067-.073.147 0 .081-.033.147-.074.147-.04 0-.073.066-.073.147 0 .081-.033.147-.074.147-.04 0-.073.1-.073.221s-.034.22-.074.22c-.04 0-.073.067-.073.148 0 .08-.034.147-.074.147-.04 0-.073.066-.073.147 0 .08-.034.147-.074.147-.04 0-.074.066-.074.147 0 .08-.033.147-.073.147a.074.074 0 0 0-.073.073c0 .047.735.074 2.058.074 2.01 0 2.058-.004 2.058-.147 0-.081.033-.147.074-.147.04 0 .073-.067.073-.147 0-.081.034-.147.074-.147.04 0 .073-.1.073-.22 0-.122.034-.222.074-.222.04 0 .073-.066.073-.146 0-.081.034-.148.074-.148.04 0 .073-.099.073-.22s.034-.22.074-.22c.04 0 .073-.067.073-.148 0-.08.034-.147.074-.147.04 0 .073-.066.073-.147 0-.08.034-.147.074-.147.04 0 .074-.066.074-.147 0-.08.033-.147.073-.147.04 0 .074-.099.074-.22 0-.122.033-.22.073-.22.04 0 .074-.067.074-.148 0-.08.033-.147.073-.147.04 0 .074-.066.074-.147 0-.08.033-.147.073-.147.04 0 .074-.1.074-.22 0-.122.033-.221.073-.221.04 0 .074-.066.074-.147 0-.081.033-.147.073-.147.04 0 .074-.052.074-.116 0-.332-.13-.325 5.912-.325 5.418 0 5.703.006 5.703.13 0 .073.066.179.147.237a.4.4 0 0 1 .147.31c0 .113.033.205.074.205.04 0 .073.066.073.147 0 .08.033.147.074.147.04 0 .073.066.073.147 0 .08.033.147.074.147.04 0 .073.066.073.147 0 .08.033.147.074.147.04 0 .073.066.073.147 0 .081.033.147.074.147.04 0 .073.1.073.22 0 .122.033.221.074.221.04 0 .073.066.073.147 0 .081.033.147.074.147.04 0 .073.067.073.147 0 .081.034.147.074.147.04 0 .073.066.073.147 0 .081.033.147.074.147.04 0 .074.067.074.147 0 .081.032.148.073.148.04 0 .074.066.074.146 0 .081.033.148.073.148.04 0 .074.066.074.147 0 .08.033.147.073.147.04 0 .073.066.073.147 0 .08.034.147.074.147.04 0 .074.066.074.147 0 .144.049.147 2.279.147 1.47 0 2.278-.026 2.278-.074a.074.074 0 0 0-.073-.073c-.04 0-.074-.066-.074-.147 0-.081-.033-.147-.073-.147-.04 0-.074-.066-.074-.147 0-.081-.033-.147-.073-.147-.04 0-.074-.067-.074-.147 0-.081-.033-.148-.073-.148-.04 0-.074-.066-.074-.146 0-.081-.033-.148-.073-.148-.04 0-.074-.099-.074-.22s-.033-.22-.073-.22c-.04 0-.074-.067-.074-.148 0-.08-.033-.147-.073-.147-.04 0-.074-.066-.074-.147 0-.08-.033-.147-.073-.147-.04 0-.074-.066-.074-.147 0-.08-.033-.147-.073-.147-.04 0-.074-.066-.074-.147 0-.08-.033-.147-.073-.147-.04 0-.074-.066-.074-.147 0-.08-.033-.147-.073-.147-.04 0-.074-.066-.074-.147 0-.08-.033-.147-.073-.147-.04 0-.074-.066-.074-.147 0-.08-.033-.147-.073-.147-.04 0-.074-.066-.074-.147 0-.08-.033-.147-.073-.147-.04 0-.074-.066-.074-.147 0-.081-.033-.147-.073-.147-.04 0-.074-.066-.074-.147 0-.081-.033-.147-.074-.147-.04 0-.073-.066-.073-.147 0-.081-.033-.147-.073-.147-.04 0-.074-.1-.074-.22 0-.122-.033-.221-.074-.221-.04 0-.073-.067-.073-.147 0-.081-.033-.147-.074-.147-.04 0-.073-.067-.073-.148 0-.08-.033-.146-.074-.146-.04 0-.073-.067-.073-.148 0-.08-.033-.147-.074-.147-.04 0-.073-.066-.073-.147 0-.08-.033-.147-.074-.147-.04 0-.073-.066-.073-.147 0-.08-.033-.147-.074-.147-.04 0-.073-.066-.073-.147 0-.08-.033-.147-.074-.147-.04 0-.073-.066-.073-.147 0-.08-.033-.147-.074-.147-.04 0-.073-.066-.073-.147 0-.08-.033-.147-.074-.147-.04 0-.073-.066-.073-.147 0-.08-.033-.147-.074-.147-.04 0-.073-.066-.073-.147 0-.08-.033-.147-.074-.147-.04 0-.073-.066-.073-.147 0-.08-.033-.147-.074-.147-.04 0-.073-.1-.073-.22 0-.122-.034-.221-.074-.221-.04 0-.073-.066-.073-.147 0-.081-.033-.147-.074-.147-.04 0-.073-.066-.073-.147 0-.081-.033-.147-.074-.147-.04 0-.074-.066-.074-.147 0-.081-.033-.147-.073-.147-.04 0-.074-.066-.074-.147 0-.081-.033-.147-.073-.147-.04 0-.073-.066-.073-.147 0-.081-.034-.147-.074-.147-.04 0-.073-.067-.073-.147 0-.081-.034-.148-.074-.148-.04 0-.074-.066-.074-.146 0-.081-.033-.148-.073-.148-.04 0-.074-.066-.074-.147 0-.08-.033-.147-.073-.147-.04 0-.074-.066-.074-.147 0-.08-.033-.147-.073-.147-.04 0-.074-.066-.074-.147 0-.08-.033-.147-.073-.147-.04 0-.074-.066-.074-.147 0-.08-.033-.147-.073-.147-.04 0-.074-.099-.074-.22 0-.122-.033-.22-.073-.22-.04 0-.074-.067-.074-.148 0-.08-.033-.147-.073-.147-.04 0-.074-.066-.074-.147 0-.08-.033-.147-.073-.147-.04 0-.074-.066-.074-.147 0-.08-.033-.147-.073-.147-.04 0-.074-.066-.074-.147 0-.081-.033-.147-.073-.147-.04 0-.074-.066-.074-.147 0-.081-.033-.147-.073-.147-.04 0-.074-.066-.074-.147 0-.081-.033-.147-.073-.147-.04 0-.074-.066-.074-.147 0-.081-.033-.147-.074-.147-.04 0-.073-.066-.073-.147 0-.081-.033-.147-.074-.147-.04 0-.073-.067-.073-.147 0-.081-.033-.147-.074-.147-.04 0-.073-.067-.073-.147 0-.081-.033-.147-.073-.147-.041 0-.074-.067-.074-.148 0-.08-.033-.147-.074-.147-.04 0-.073-.066-.073-.147 0-.08-.033-.147-.074-.147-.04 0-.073-.066-.073-.147 0-.08-.033-.147-.074-.147-.04 0-.073-.092-.073-.204 0-.12-.06-.248-.147-.31a.406.406 0 0 1-.147-.294.406.406 0 0 0-.147-.294.401.401 0 0 1-.147-.31c0-.113-.033-.205-.074-.205-.04 0-.073-.066-.073-.147 0-.08-.033-.147-.074-.147-.04 0-.073-.066-.073-.147 0-.081-.033-.147-.074-.147-.04 0-.073-.066-.073-.147 0-.081-.033-.147-.074-.147-.04 0-.073-.066-.073-.147 0-.081-.034-.147-.074-.147-.04 0-.073-.066-.073-.147 0-.081-.034-.147-.074-.147-.04 0-.073-.066-.073-.147 0-.081-.033-.147-.074-.147-.04 0-.073-.067-.073-.147 0-.081-.034-.147-.074-.147-.04 0-.074-.067-.074-.147 0-.081-.033-.147-.073-.147-.04 0-.074-.067-.074-.148 0-.08-.033-.147-.073-.147-.04 0-.074-.066-.074-.147 0-.08-.033-.147-.073-.147-.04 0-.074-.052-.074-.115 0-.31-.11-.326-2.292-.321l-2.082.004-.165.177zm84.23 1.474c0 1.34.02 1.68.105 1.764.088.088.679.105 3.676.105h3.57v18.085h3.823V4.419h7.646V.89h-18.82v1.66zm22.201 9.147v10.807h16.909v-3.381h-12.939v-5.736h5.44c5.391 0 5.44-.001 5.44-.147 0-.081.033-.147.074-.147.046 0 .073-.417.073-1.103 0-.686-.027-1.103-.073-1.103-.106 0-.091-.274.018-.324.074-.035.074-.052 0-.086-.05-.024-.092-.14-.092-.257v-.215h-10.88V4.42h12.498V.89h-16.468v10.807zM79.234 4.346c0 .042.22.073.515.073.294 0 .514.032.514.074 0 .04.132.073.294.073.162 0 .294.033.294.074 0 .04.1.073.22.073.122 0 .221.033.221.074 0 .04.1.073.22.073.122 0 .222.033.222.074 0 .04.066.073.147.073.08 0 .147.033.147.074 0 .04.066.073.147.073.08 0 .147.033.147.074 0 .04.058.073.13.073.072 0 .179.066.237.147.059.081.151.147.206.147.055 0 .227.133.382.294.156.162.32.294.365.294.106 0 .591.486.591.592 0 .045.132.209.294.364.162.155.294.328.294.382 0 .055.066.148.147.206.081.059.147.165.147.237 0 .072.033.13.074.13.04 0 .073.067.073.148 0 .08.033.147.074.147.04 0 .073.066.073.147 0 .08.033.147.074.147.04 0 .073.1.073.22 0 .122.033.221.074.221.04 0 .073.1.073.22 0 .122.033.221.074.221.04 0 .073.132.073.294 0 .162.033.294.074.294.04 0 .073.196.073.441s.033.441.074.441c.044 0 .073.27.073.662s-.03.662-.073.662c-.042 0-.074.22-.074.514 0 .294-.031.515-.073.515-.04 0-.074.132-.074.294 0 .162-.033.294-.073.294-.04 0-.074.1-.074.22 0 .122-.033.221-.073.221-.04 0-.074.066-.074.147 0 .081-.033.147-.073.147-.04 0-.074.1-.074.22 0 .122-.033.221-.073.221-.04 0-.074.06-.074.131 0 .072-.066.178-.147.237-.08.058-.147.157-.147.22s-.066.163-.147.22c-.08.06-.147.15-.147.202 0 .124-1.366 1.49-1.49 1.49-.052 0-.142.066-.2.147-.06.08-.166.147-.238.147-.072 0-.13.033-.13.073 0 .04-.06.074-.131.074-.072 0-.179.066-.237.147-.058.08-.165.147-.237.147-.072 0-.13.033-.13.073 0 .04-.1.074-.221.074s-.22.033-.22.073c0 .04-.067.074-.148.074-.08 0-.147.033-.147.073 0 .04-.132.074-.294.074-.161 0-.294.033-.294.073 0 .04-.165.074-.367.074-.203 0-.368.033-.368.073 0 .047-.466.074-1.25.074s-1.25-.027-1.25-.073c0-.04-.165-.074-.367-.074-.202 0-.368-.033-.368-.074 0-.04-.132-.073-.294-.073-.161 0-.294-.033-.294-.073 0-.041-.066-.074-.147-.074-.08 0-.147-.033-.147-.074 0-.04-.099-.073-.22-.073-.122 0-.22-.033-.22-.074 0-.04-.067-.073-.148-.073-.08 0-.147-.033-.147-.074 0-.04-.059-.073-.13-.073-.073 0-.18-.066-.237-.147-.059-.081-.158-.147-.221-.147s-.162-.066-.22-.147c-.059-.081-.15-.147-.202-.147-.123 0-1.49-1.366-1.49-1.49 0-.052-.066-.143-.147-.201-.08-.058-.146-.165-.146-.237 0-.072-.034-.13-.074-.13-.04 0-.073-.06-.073-.131 0-.072-.067-.179-.148-.237-.08-.059-.147-.165-.147-.237 0-.072-.033-.13-.073-.13-.04 0-.074-.1-.074-.221 0-.122-.033-.22-.073-.22-.04 0-.074-.1-.074-.221 0-.122-.033-.221-.073-.221-.04 0-.074-.1-.074-.22 0-.122-.033-.221-.073-.221-.041 0-.074-.196-.074-.441s-.032-.441-.073-.441c-.045 0-.074-.343-.074-.883 0-.538.029-.882.074-.882.04 0 .073-.196.073-.44 0-.246.033-.442.074-.442.04 0 .073-.132.073-.294 0-.162.033-.294.074-.294.04 0 .073-.1.073-.22 0-.122.033-.221.074-.221.04 0 .073-.066.073-.147 0-.08.034-.147.074-.147.04 0 .073-.066.073-.147 0-.081.034-.147.074-.147.04 0 .073-.066.073-.147 0-.081.033-.147.074-.147.04 0 .073-.06.073-.131 0-.072.067-.178.148-.237.08-.058.146-.151.146-.207 0-.056.1-.194.221-.307.121-.114.22-.244.22-.29 0-.106.633-.74.74-.74.044 0 .208-.132.363-.294.156-.161.328-.294.383-.294.055 0 .147-.066.206-.147.058-.08.164-.147.236-.147.072 0 .131-.033.131-.073 0-.04.066-.074.147-.074.081 0 .147-.033.147-.073 0-.04.066-.074.147-.074.081 0 .147-.033.147-.073 0-.04.1-.074.22-.074.122 0 .221-.033.221-.073 0-.04.1-.074.22-.074.122 0 .221-.033.221-.073 0-.04.133-.074.294-.074.162 0 .294-.033.294-.073 0-.042.221-.074.515-.074.294 0 .515-.031.515-.073 0-.044.27-.074.661-.074.392 0 .662.03.662.074zm-48.92.62a.373.373 0 0 1 .106.22c0 .063.033.115.073.115.04 0 .074.1.074.22 0 .122.033.221.073.221.04 0 .074.066.074.147 0 .081.033.147.074.147.04 0 .073.067.073.147 0 .081.033.147.073.147.041 0 .074.067.074.147 0 .081.033.147.074.147.04 0 .073.067.073.148 0 .08.033.147.074.147.04 0 .073.066.073.147 0 .08.033.147.074.147.04 0 .073.066.073.147 0 .08.033.147.074.147.04 0 .073.099.073.22 0 .122.033.22.074.22.04 0 .073.067.073.148 0 .08.033.147.074.147.04 0 .073.066.073.147 0 .08.033.147.074.147.04 0 .073.066.073.147 0 .08.033.147.074.147.04 0 .073.1.073.22 0 .122.033.221.074.221.04 0 .073.066.073.147 0 .08.033.147.074.147.04 0 .073.066.073.147 0 .081.033.147.074.147.04 0 .073.066.073.147 0 .081.033.147.074.147.04 0 .073.066.073.147 0 .081.034.147.074.147.04 0 .074.066.074.147 0 .081.032.147.073.147.04 0 .073.066.073.147 0 .081.034.147.074.147.04 0 .074.1.074.22 0 .122.033.221.073.221.04 0 .074.067.074.147 0 .081.033.148.073.148.04 0 .074.066.074.147 0 .08.033.147.073.147.04 0 .074.066.074.147 0 .08.033.147.073.147.04 0 .074.099.074.22s.033.22.073.22c.04 0 .074.067.074.148 0 .08.033.147.073.147.04 0 .074.066.074.147 0 .08.033.147.073.147.04 0 .074.066.074.147 0 .08.033.147.073.147.04 0 .074.066.074.147 0 .08.033.147.073.147.04 0 .074.066.074.147 0 .145-.05.147-4.19.147-4.142 0-4.19-.002-4.19-.147 0-.08.032-.147.073-.147.04 0 .073-.066.073-.147 0-.08.033-.147.074-.147.04 0 .073-.1.073-.22 0-.122.033-.221.074-.221.04 0 .073-.066.073-.147 0-.081.033-.147.074-.147.04 0 .073-.066.073-.147 0-.081.033-.147.074-.147.04 0 .073-.1.073-.22 0-.122.033-.221.074-.221.04 0 .073-.066.073-.147 0-.081.033-.147.074-.147.04 0 .073-.067.073-.147 0-.081.033-.148.074-.148.04 0 .073-.099.073-.22s.033-.22.074-.22c.04 0 .073-.067.073-.148 0-.08.033-.147.074-.147.04 0 .073-.099.073-.22s.033-.22.074-.22c.04 0 .073-.067.073-.148 0-.08.034-.147.074-.147.04 0 .073-.066.073-.147 0-.08.033-.147.074-.147.04 0 .073-.1.073-.22 0-.122.034-.22.074-.22.04 0 .074-.067.074-.148 0-.08.033-.147.073-.147.04 0 .073-.066.073-.147 0-.08.034-.147.074-.147.04 0 .074-.066.074-.147 0-.081.033-.147.073-.147.04 0 .074-.1.074-.22 0-.122.033-.221.073-.221.04 0 .074-.066.074-.147 0-.081.033-.147.073-.147.04 0 .074-.066.074-.147 0-.081.033-.147.073-.147.04 0 .074-.1.074-.22 0-.122.033-.221.073-.221.04 0 .074-.067.074-.147 0-.081.033-.147.073-.147.04 0 .074-.1.074-.221s.033-.22.073-.22c.04 0 .074-.067.074-.148 0-.08.033-.147.073-.147.04 0 .074-.066.074-.147 0-.08.033-.147.073-.147.04 0 .074-.066.074-.147 0-.08.033-.147.073-.147.04 0 .074-.084.074-.187 0-.156.12-.388.207-.398a.435.435 0 0 1 .129.102z" clip-rule="evenodd" fill-rule="evenodd"></path></svg>