<svg viewBox="0 0 50 50" xmlns="http://www.w3.org/2000/svg" fill="none"><path fill="#000" d="m41.8 33.5-.8.4c-3 1.7-5.4 4.1-7 7.1l-.5.8 5.8 1.7c2.6.8 5-1.6 4.2-4.2l-1.7-5.8ZM8.2 16.5l.8-.4c3-1.7 5.4-4.1 7-7.1l.5-.9-5.8-1.7c-2.6-.7-5 1.7-4.2 4.3l1.7 5.8ZM34 9c1.6 3 4 5.4 7 7l.8.5 1.7-5.8c.8-2.6-1.6-5-4.2-4.2l-5.8 1.7.4.8ZM16 41c-1.6-3-4-5.4-7-7l-.9-.5-1.7 5.8c-.7 2.6 1.7 5 4.3 4.2l5.8-1.7-.4-.8ZM36.7 5.4v-.7C36.4 2 33.2.7 31 2.4l-.5.4 2 3.8 4.1-1.2ZM19.4 2.8l-.5-.4a3.4 3.4 0 0 0-5.6 2.3v.7l4 1.2 2.1-3.8ZM2.8 19.4l3.8-2-1.2-4.1h-.7c-2.7.3-4 3.5-2.3 5.6l.4.5ZM2.8 30.6l-.4.5a3.4 3.4 0 0 0 2.3 5.6h.7l1.2-4-3.8-2.1ZM47.2 30.6l-3.8 2 1.2 4.2.7-.1c2.7-.3 4-3.5 2.3-5.6l-.4-.5ZM47.2 19.4l.4-.5c1.7-2.1.4-5.3-2.3-5.6h-.7l-1.2 4 3.8 2.1ZM30.5 47.2l.6.4c2.1 1.7 5.3.4 5.6-2.3v-.7l-4-1.2-2.2 3.8ZM13.2 44.6l.1.7c.3 2.7 3.5 4 5.6 2.3l.5-.4-2-3.8-4.2 1.2Z"></path><path fill="#000" d="m48.2 22-8-4.4c-3.3-1.8-6-4.5-7.8-7.8l-4.4-8a3.5 3.5 0 0 0-6 0l-4.4 8c-1.8 3.3-4.5 6-7.8 7.8l-8 4.4a3.4 3.4 0 0 0 0 6l8 4.4c3.3 1.8 6 4.5 7.8 7.8l4.4 8a3.5 3.5 0 0 0 6 0l4.4-8c1.8-3.3 4.5-6 7.8-7.8l8-4.4a3.4 3.4 0 0 0 0-6Zm-18.1 7.5h-1.8V24l-2.6 4h-1.4l-2.6-4v5.5h-1.8v-9h1.5L25 26l3.6-5.4h1.5v9Z"></path></svg>