<svg viewBox="0 0 174 35" xmlns="http://www.w3.org/2000/svg" fill="none"><g fill="#000" clip-rule="evenodd" fill-rule="evenodd" clip-path="url(#a)"><path d="M169.613 26.182c.107 1.199 1.065 2.726 2.727 2.726h.973c.377 0 .685-.31.685-.685V6.833h-.005a.685.685 0 0 0-.682-.649h-3.014a.688.688 0 0 0-.682.649h-.003v1.738c-1.846-2.276-4.757-3.22-7.677-3.22-6.636 0-12.015 5.383-12.015 12.025 0 6.641 5.379 12.025 12.015 12.025 2.92 0 6.1-1.133 7.677-3.22v.004l.001-.003Zm-7.664-.992c-4.22 0-7.642-3.5-7.642-7.816 0-4.317 3.421-7.816 7.642-7.816s7.64 3.499 7.64 7.816-3.421 7.816-7.64 7.816ZM146.113 26.918V15.85c0-6.24-3.932-10.449-10.205-10.449-2.995 0-5.448 1.733-6.315 3.22-.187-1.163-.803-2.387-2.719-2.387h-.976a.688.688 0 0 0-.686.688v21.391h.004c.019.36.318.65.682.65h3.013a.713.713 0 0 0 .136-.015c.019-.003.038-.012.058-.017.022-.007.045-.012.066-.02.027-.011.05-.027.076-.04.012-.008.025-.013.037-.022a.625.625 0 0 0 .083-.066l.014-.012a.684.684 0 0 0 .211-.458h.003V15.677a6.063 6.063 0 1 1 12.126 0l.004 10.562v-.003l.002.03v2.047h.003c.019.36.317.65.682.65h3.014c.047 0 .09-.006.135-.015.018-.003.035-.01.053-.015.024-.007.05-.014.073-.023a.516.516 0 0 0 .069-.038c.014-.009.03-.014.044-.023a.51.51 0 0 0 .078-.062c.007-.006.014-.01.019-.016a.759.759 0 0 0 .077-.089c0-.002.003-.003.005-.007a.666.666 0 0 0 .127-.36h.004v-1.397M114.727 26.182c.106 1.199 1.065 2.726 2.727 2.726h.972c.378 0 .686-.31.686-.685V6.833h-.004a.686.686 0 0 0-.682-.649h-3.014a.687.687 0 0 0-.682.649h-.003v1.738c-1.846-2.276-4.757-3.22-7.677-3.22-6.636 0-12.015 5.383-12.015 12.025 0 6.641 5.379 12.025 12.015 12.025 2.92 0 6.1-1.133 7.677-3.22v.004-.003Zm-7.665-.992c-4.219 0-7.64-3.5-7.64-7.816 0-4.317 3.421-7.816 7.64-7.816 4.22 0 7.641 3.499 7.641 7.816s-3.421 7.816-7.641 7.816ZM77.214 23.12c2.012 1.395 4.208 2.072 6.318 2.072 2.11 0 4.09-1.043 4.09-2.86 0-2.423-4.53-2.8-7.375-3.768-2.847-.967-5.296-2.968-5.296-6.208 0-4.958 4.414-7.005 8.534-7.005 2.61 0 5.304.86 7.05 2.094.603.456.236.98.236.98l-1.667 2.382c-.188.268-.515.5-.985.21-.47-.29-2.12-1.457-4.634-1.457-2.514 0-4.028 1.162-4.028 2.6 0 1.727 1.968 2.27 4.274 2.86 4.015 1.084 8.398 2.385 8.398 7.315 0 4.367-4.082 7.067-8.595 7.067-3.42 0-6.33-.976-8.773-2.768-.508-.51-.153-.983-.153-.983l1.658-2.37c.337-.444.764-.289.948-.16M65.628 26.182c.106 1.199 1.064 2.726 2.726 2.726h.973c.377 0 .685-.31.685-.685V6.833h-.003a.685.685 0 0 0-.682-.649h-3.014a.688.688 0 0 0-.682.649h-.003v1.738c-1.847-2.276-4.758-3.22-7.677-3.22-6.635 0-12.015 5.383-12.015 12.025 0 6.641 5.38 12.025 12.015 12.025 2.92 0 6.1-1.133 7.677-3.22v.004-.003Zm-7.665-.992c-4.22 0-7.642-3.5-7.642-7.816 0-4.317 3.42-7.816 7.642-7.816 4.221 0 7.64 3.499 7.64 7.816s-3.42 7.816-7.64 7.816ZM29.093 18.192a8.086 8.086 0 1 0 0 16.171 8.086 8.086 0 0 0 0-16.171Zm-21.007 0a8.087 8.087 0 1 0 .002 16.173 8.087 8.087 0 0 0-.002-16.173ZM26.674 8.084a8.085 8.085 0 0 1-8.086 8.086 8.086 8.086 0 1 1 8.086-8.084v-.002Z"></path></g><defs><clipPath id="a"><path d="M0 0h174v34.363H0z" fill="#fff"></path></clipPath></defs></svg>