<svg version="1.0" xmlns="http://www.w3.org/2000/svg" width="4723.000000pt" height="1250.000000pt" viewBox="0 0 4723.000000 1250.000000" preserveAspectRatio="xMidYMid meet">

<g transform="translate(0.000000,1250.000000) scale(0.100000,-0.100000)" fill="#000000" stroke="none">
<path d="M11825 12493 c-509 -44 -999 -246 -1385 -569 -175 -146 -294 -283
-571 -654 -146 -195 -307 -404 -359 -464 -193 -223 -344 -322 -564 -367 -88
-18 -233 -19 -4518 -19 l-4428 0 0 -5210 0 -5210 1768 0 c1171 0 1805 4 1878
11 403 39 804 181 1146 408 278 183 466 367 707 691 477 642 520 695 639 791
88 71 186 122 291 152 l76 22 4478 3 4477 2 0 5210 0 5210 -1797 -2 c-989 -1
-1816 -3 -1838 -5z m925 -5223 l0 -2499 -1967 -4 c-2140 -4 -1983 0 -2258 -58
-261 -55 -583 -190 -809 -339 -161 -106 -236 -168 -386 -319 -111 -112 -178
-193 -374 -456 -366 -490 -468 -610 -607 -714 -95 -72 -178 -113 -290 -143
l-84 -23 -1643 -2 -1642 -3 0 2500 0 2499 1962 4 1963 3 140 27 c258 48 461
115 675 222 396 197 667 432 1007 875 346 451 486 613 626 725 86 69 197 131
285 160 133 43 132 43 1805 44 l1597 1 0 -2500z"></path>
<path d="M19330 7290 l0 -5210 2528 0 c1616 0 2586 4 2692 10 691 43 1293 265
1790 660 124 98 328 300 424 420 172 215 358 542 450 791 222 604 241 1309 51
1884 -45 138 -163 380 -245 505 -248 377 -627 703 -1093 936 l-91 46 53 32
c192 113 434 306 584 467 541 577 766 1350 637 2189 -128 832 -603 1589 -1278
2034 -328 216 -679 351 -1092 418 l-135 23 -2637 2 -2638 3 0 -5210z m5070
3567 c115 -26 196 -55 300 -108 124 -63 206 -127 317 -243 105 -109 185 -224
247 -357 170 -358 196 -741 75 -1086 -134 -381 -460 -694 -862 -828 -204 -68
-115 -65 -1828 -65 l-1549 0 0 1348 c0 742 3 1352 7 1356 4 4 730 5 1613 3
1452 -3 1612 -5 1680 -20z m70 -4344 c207 -52 410 -145 560 -257 114 -86 282
-261 358 -375 157 -234 232 -473 232 -738 0 -352 -148 -674 -441 -959 -258
-251 -589 -417 -923 -463 -53 -8 -568 -11 -1617 -11 l-1539 0 0 1415 0 1415
1643 -3 c1637 -3 1642 -3 1727 -24z"></path>
<path d="M31740 9910 c-672 -47 -1231 -302 -1736 -792 -67 -65 -124 -118 -128
-118 -3 0 -6 173 -6 385 l0 385 -820 0 -820 0 0 -3845 0 -3845 885 0 885 0 3
2358 c3 2331 3 2358 24 2467 26 140 66 288 104 382 197 498 573 803 1104 899
138 25 426 25 588 0 65 -10 120 -16 121 -15 234 301 1215 1614 1209 1619 -8 8
-259 48 -468 74 -330 43 -725 62 -945 46z"></path>
<path d="M35870 9910 c-782 -49 -1454 -298 -2020 -749 -134 -106 -399 -375
-504 -511 -326 -422 -548 -880 -686 -1414 -99 -385 -146 -739 -157 -1191 -24
-1051 226 -1984 720 -2685 351 -498 840 -893 1392 -1125 379 -160 777 -252
1225 -286 195 -15 647 -6 830 15 615 72 1153 260 1600 558 367 244 628 512
861 883 148 235 301 598 363 858 l6 27 -947 0 -948 0 -65 -86 c-423 -562
-1287 -789 -2048 -538 -588 193 -1002 646 -1121 1226 -16 76 -40 284 -41 346
0 9 536 12 2649 12 l2649 0 32 132 c46 196 60 302 67 513 13 421 -42 913 -149
1330 -197 774 -605 1444 -1156 1904 -521 434 -1147 691 -1865 765 -182 19
-514 27 -687 16z m590 -1644 c393 -67 705 -219 951 -465 172 -173 278 -343
347 -561 45 -143 63 -241 69 -382 l6 -128 -1742 0 -1741 0 5 73 c30 387 168
699 425 958 58 59 142 134 188 167 254 187 572 308 922 351 110 14 457 6 570
-13z"></path>
<path d="M39380 9766 c0 -3 646 -872 1435 -1933 789 -1060 1433 -1934 1430
-1941 -2 -7 -647 -863 -1432 -1903 -786 -1039 -1429 -1894 -1431 -1899 -2 -6
377 -10 1036 -10 l1040 0 902 1198 c496 658 910 1205 919 1214 15 16 80 -68
931 -1198 l915 -1214 1053 0 c579 0 1051 4 1048 9 -3 4 -655 862 -1450 1905
l-1445 1897 308 412 c169 227 703 941 1186 1587 483 646 997 1334 1142 1528
l263 352 -1023 0 -1022 0 -940 -1250 c-516 -688 -942 -1250 -945 -1249 -3 0
-427 562 -943 1250 l-938 1249 -1019 0 c-561 0 -1020 -2 -1020 -4z"></path>
</g>
</svg>
