<svg viewBox="0 0 122 46" xmlns="http://www.w3.org/2000/svg" fill="none"><g fill="#000" clip-path="url(#a)"><path d="M61.471.018C28.01.018.91 10.29.91 22.937c0 12.646 27.1 22.88 60.561 22.88 33.462 0 60.523-10.234 60.523-22.88C121.994 10.29 94.9.018 61.471.018Zm0 43.462c-32.096 0-58.18-9.14-58.18-20.543 0-11.405 26.084-20.615 58.18-20.615 32.096 0 58.218 9.256 58.218 20.621 0 11.365-26.044 20.537-58.218 20.537Z"></path><path d="M61.471 4.038c-31.157 0-56.341 8.478-56.341 18.899 0 10.42 25.184 18.937 56.348 18.937 31.164 0 56.386-8.472 56.386-18.937 0-10.466-25.268-18.9-56.393-18.9ZM33.867 34.574c-3.398 0-6.401-2.227-6.479-6.207-.039-2.42 1.916-5.392 5.547-6.285.427 0 .589.156.589.389 0 .155-.155.35-.505.505-1.055.388-2.887 2.459-2.887 4.375 0 1.443.9 3.048 2.421 3.398.427.116.822.077 1.21.077 3.787 0 8.045-4.258 12.654-10.737-.745.039-3.903.388-4.686 1.288-.35.272-.583.116-.667-.194 0-.078.117-.35.233-.505 1.25-1.405 4.997-1.715 5.896-1.838 3.366-5.159 7.65-8.447 8.835-8.686-.026 0-.058-.013-.084-.02-3.01-.705-5.741-1.288-7.89-1.288-7.534 0-10.893 3.243-10.737 6.207.077 1.21 1.055 1.994 2.498 1.715 1.56-.271 3.747-1.754 4.298-3.048.116-.272.427-.31.543-.233.233.194.156.466.156.466-.195 1.521-2.538 5.741-6.602 5.741-2.266 0-3.786-2.11-3.748-4.181.04-3.864 3.98-7.773 13.709-7.773 1.838 0 3.903.155 6.168.543 2.615.466 9.139 1.56 14.446 1.638 1.955 0 4.453.078 6.485-.233 2.149-.35 1.677-.427 2.537-.427.783 0 .783.31.783.627 0 1.25-4.375 3.631-8.084 3.631-5.469 0-11.138-2.478-14.083-3.274.11.103.194.278.103.504-.038.078-.427.505-.582.628-.783.706-3.437 2.42-6.324 7.3 2.343-.116 5.075-.588 5.075-.588s-.156-.505-.156-.939c.117-1.676 1.094-2.692 2.343-2.498.706.117 1.172.706 1.172 1.327 0 .667-.505 1.637-1.016 2.11-.35.272-.745.544-1.21.783 0 .427.582.783 1.093.822-.116.427-.077.628-.272.582-1.171 0-1.637-1.132-1.637-1.132-1.56.272-3.087.466-6.168.783-7.773 12.576-10.194 14.64-14.958 14.64l-.02.007Zm53.532-2.071c1.677-.078 4.764-3.282 5.508-4.058.155-.195.427-.544.59-.544.16 0 .465.155.465.388 0 .155-.35.744-.628 1.094-1.56 1.955-4.136 4.958-7.068 5.035-1.443 0-1.993-.588-2.187-1.715-.667.59-2.926 1.599-5.23 1.599-1.916-.039-2.692-1.172-3.087-2.071-.35-.745-.505-1.838-.233-2.926-1.055.544-2.032.628-3.437.59-1.637-.04-2.653-.784-3.165-2.693-1.877 3.437-1.954 3.553-3.864 7.145h-3.32l4.259-7.223c.544-.977.822-1.76 1.016-2.576.117-.466-.233-.9-.744-.938-.544 0-1.444.543-2.305 1.365 0 0-2.187 2.343-3.786 4.725-1.52 2.265-4.142 4.841-6.99 4.841-2.071 0-3.941-1.132-4.336-3.32 0 0-.194.505-2.032 1.56-.156.078-.544.31-.66.233-.35-.31-.55-.706-.59-.977.117.038.35-.156 1.094-.745 1.443-1.094 1.76-1.954 1.76-1.954.35-.745.978-1.916 1.405-2.732 1.171-2.343 3.204-4.724 6.524-4.84.544 0 .706.232.822.426.31.233.194.706.194.706-2.343.35-3.941 1.715-4.919 3.048-.582.861-1.21 2.265-1.326 3.282-.233 1.76.589 2.925 1.799 3.203 2.265.35 4.136-1.287 5.624-3.825.389-.666.667-2.382.667-3.32 0-.938-.511-1.916-.9-2.304 0-.667.427-1.094.939-1.094.155 0 .31 0 .466.155.783.784 1.21 2.266 1.21 3.398 0 .389 0 .784-.078 1.172 1.638-1.994 3.709-4.57 5.308-5.074.31-.156.627-.156.938-.156 2.926-.077 2.537 2.576 2.537 2.576 1.56-1.8 2.654-2.46 4.097-2.382 1.56.078 2.11 1.172 2.11 2.033-.039 1.016-.783 2.187-2.071 2.226-1.133 0-1.8-.543-2.149-1.56-.744.272-1.094.784-1.249 1.8-.233 1.288.744 2.304 1.994 2.304 2.148 0 3.087-.939 3.864-1.638 2.653-2.498 4.135-5.113 7.967-5.074 2.304.039 2.886 1.877 3.281 2.654l5.036-8.511h3.087L87.25 30.613c-.155.31-.543.9-.504 1.365.077.745 1.016.544.666.544l-.013-.02Z"></path><path d="M84.357 23.487c-1.365-.156-3.087 1.016-4.492 2.731-.705.86-1.443 2.498-1.56 3.476-.155.977.117 1.954.467 2.226.35.272 1.915 1.094 4.336-1.366 1.366-1.365 2.693-3.592 2.693-3.592l-.428-.116c.822-1.521.667-3.165-1.016-3.36Z"></path></g><defs><clipPath id="a"><path d="M0 0h121.09v45.804H0z" transform="translate(.91 .018)" fill="#fff"></path></clipPath></defs></svg>