<svg viewBox="0 0 76 58" xmlns="http://www.w3.org/2000/svg" fill="none"><path fill="#000" d="m33.01 31.268 2.644-22.186 2.991 22.186H33.01Zm13.058 21.756v.041l-6.386-51.69h-4.28l-6.207 51.151c-.367 1.838-.554 2.962-3.47 3.013v.945h7.547v-.945c-2.137 0-3.103-1.23-2.89-2.55l2.516-20.747h5.868l2.642 21.442c0 1.287-.138 1.758-1.7 1.858h-.745v.944H49.02v-.944h-.267a2.548 2.548 0 0 1-2.685-2.516M14.405 2.096c0 .887-.565.816-1.022.535A10.42 10.42 0 0 0 7.961.856a6.473 6.473 0 0 0-7.104 6.86v40.95C.91 55.78 4.686 57.1 8.403 57.143a10.745 10.745 0 0 0 5.444-1.83c.62-.243 1.299.325 1.299 1.376h1.202V32.256h2.428v-1.015H8.578v1.015h2.94V53.06a3.09 3.09 0 0 1-3.069 3.183 3.033 3.033 0 0 1-2.928-3.183V6.09c0-1.274.26-4.25 2.428-4.231 1.79 0 3.038 1.646 3.616 4.127.63 3.822.959 7.687.983 11.56 0 .896.333 1.203 1.311 1.203h1.89V1.34h-1.344v.755ZM64.917 29.206V2.262h2.523a3.475 3.475 0 0 1 3.48 3.542V27.9a3.1 3.1 0 0 1-3.232 3.285h-2.77v-1.979ZM67.46 1.387H57.422v.875h2.639V53.98c-.06 1.12-.486 1.516-2.105 1.579h-.534v.942h11.303v-.942h-1.188c-1.896-.066-2.596-.836-2.632-2.475V32.288h3.293c4.79 0 7.527-2.295 7.527-5.369V7.215c0-3.072-2.35-5.828-8.273-5.828"></path></svg>