<svg fill="none" xmlns="http://www.w3.org/2000/svg" viewBox="0 0 115 32"><path d="M56.353 25.215h.706l3.636 5.013v-5.013h.624v6.08h-.592l-3.752-5.162v5.162h-.623v-6.08h.001zm6.514 0h4.022v.616h-3.372v2.01h3.29v.608h-3.29v2.258h3.405v.59h-4.055v-6.082zm7.281.615h-2.28v-.615h5.211v.616h-2.281v5.466h-.648V25.83h-.002zm3.719-.615h.666l1.6 5.03 1.633-5.03h.558l1.625 5.03 1.608-5.03h.624l-1.953 6.122h-.559l-1.641-5.063-1.633 5.063h-.567l-1.96-6.122zm8.895 3.038c0-2.166 1.107-3.136 3.052-3.136 1.953 0 3.07.968 3.07 3.136 0 2.174-1.117 3.143-3.07 3.143-1.945 0-3.052-.968-3.052-3.143zm5.474.008c0-1.642-.763-2.528-2.42-2.528-1.65 0-2.405.886-2.405 2.528 0 1.649.755 2.537 2.404 2.537 1.656 0 2.42-.888 2.42-2.537zm4.425.559h-1.822v2.48h-.632v-6.081h2.627c1.41 0 2.052.566 2.052 1.772 0 1.05-.5 1.666-1.56 1.805l1.469 2.503h-.69l-1.444-2.48zm.18-.59c.863 0 1.396-.263 1.396-1.223 0-.944-.517-1.19-1.42-1.19h-1.976v2.412h2zm5.267-.16-1.214 1.33v1.895h-.632v-6.08h.632v3.356l3.077-3.356h.747l-2.181 2.388 2.477 3.694h-.731l-2.175-3.227zm3.447 2.61.328-.492a3.92 3.92 0 0 0 2.174.616c1.255 0 1.814-.353 1.814-1.19 0-.862-.722-.984-1.814-1.18-1.314-.231-2.2-.453-2.2-1.684 0-1.174.755-1.633 2.2-1.633.951 0 1.633.214 2.118.543l-.344.524c-.435-.288-1.083-.477-1.773-.477-1.091 0-1.559.304-1.559 1.026 0 .77.631.92 1.714 1.116 1.33.239 2.29.436 2.29 1.74 0 1.207-.771 1.79-2.429 1.79-.92 0-1.748-.19-2.519-.698zM112.861.082c-8.549 0-8.912 3.83-8.912 9.234v13.266h2.016V9.315c0-4.072-.162-7.339 6.896-7.339.757 0 1.427.04 2.03.11V.166a22.676 22.676 0 0 0-2.03-.084zM13.145 13.951V.523h2.057v13.468c0 3.872-.04 7.138 7.056 7.138 7.056 0 6.896-3.266 6.896-7.34V.524h2.016V13.79c0 5.404-.363 9.235-8.912 9.235-8.589-.002-9.113-3.831-9.113-9.074zM52.61 9.154v13.428h-2.057V9.114c0-3.871.04-7.138-7.057-7.138-7.058 0-6.894 3.267-6.894 7.34v13.266h-2.016V9.315c0-5.403.363-9.233 8.912-9.233 8.587 0 9.112 3.83 9.112 9.072zM56.352.566h1.974v22.017h-1.974V.566zm5.668 0h10.306c5.111 0 7.43 2.54 7.43 7.057 0 4.546-2.288 7.31-7.458 7.31h-8.304v7.65H62.02V.566zm10.337 12.387c3.56 0 5.33-1.736 5.33-5.242 0-3.505-1.91-5.169-5.42-5.169h-8.275v10.41h8.365zm9.698-1.461C82.055 5.001 83.91 0 92.218 0c8.588 0 8.87 5.765 8.83 11.855H84.03c.04 5.364 1.371 9.357 8.347 9.357 3.71 0 5.404-1.01 7.218-2.339l1.128 1.493c-2.015 1.492-4.394 2.662-8.347 2.662-8.709-.003-10.321-5.044-10.321-11.536zM84.07 10h15c-.2-4.395-.484-8.146-6.896-8.146-6.168.002-7.86 3.348-8.104 8.146zM.765 27.358c8.548 0 8.912-3.83 8.912-9.235V.523H7.66v17.6c0 4.073.162 7.34-6.895 7.34-.267 0-.52-.007-.766-.016v1.9c.246.007.502.011.765.011zm109.613-4.68a1.395 1.395 0 0 1-1.394-1.392 1.392 1.392 0 1 1 1.394 1.392zm0-2.604c-.669 0-1.213.544-1.213 1.212 0 .667.544 1.213 1.213 1.213a1.214 1.214 0 0 0 0-2.425z" fill="#000"></path><path d="M110.468 21.472h-.447v.614h-.212v-1.598h.711c.405 0 .562.167.562.482 0 .257-.11.437-.386.488l.362.628h-.232l-.358-.614zm.049-.2c.219 0 .344-.062.344-.296 0-.23-.121-.285-.35-.285h-.49v.581h.496z" fill="#000"></path></svg>