<svg viewBox="0 0 198 25" xmlns="http://www.w3.org/2000/svg" fill="none"><path fill="#000" d="M187.401 14.575 197.965.142v24.255h-3.592v-13.05l-7.007 9.398-6.937-9.398v13.05h-3.592V.107l10.564 14.468Zm-82.08 3.51c-.071-1.241-.634-3.723-3.839-6.312l-2.817-2.482c-1.197-.958-1.76-1.986-1.795-3.192 0-1.383.915-2.34 2.288-2.411.036 0 1.761-.213 2.817 1.277l.036.07 2.852-1.95-.035-.07c-.493-.781-2.712-2.909-5.705-2.767-1.69.071-3.204.745-4.26 1.809-1.092 1.134-1.62 2.624-1.515 4.361.106 2.022 1.268 3.901 3.698 5.887l2.64 2.34c1.48 1.206 2.113 2.234 2.184 3.44a3.22 3.22 0 0 1-.81 2.376c-.493.567-1.056.816-1.831.887h-.176c-2.219 0-3.134-1.596-3.662-2.554l-.141-.248-3.064 1.49c.282.78 1.937 4.716 6.796 4.716h.07c1.761-.107 3.381-.816 4.543-2.021 1.197-1.206 1.831-2.873 1.726-4.646ZM34.825 0C27.994 0 22.43 5.603 22.43 12.482c0 6.88 5.564 12.483 12.395 12.483 6.831 0 12.395-5.603 12.395-12.483C47.255 5.602 41.692 0 34.825 0Zm0 21.383c-4.86 0-8.803-3.972-8.803-8.865 0-4.894 3.944-8.866 8.803-8.866 4.86 0 8.803 3.972 8.803 8.866.035 4.858-3.944 8.865-8.803 8.865ZM159.794 0C152.963 0 147.4 5.603 147.4 12.482c0 6.88 5.563 12.483 12.394 12.483 6.832 0 12.395-5.603 12.395-12.483 0-6.88-5.563-12.482-12.395-12.482Zm0 21.383c-4.859 0-8.803-3.972-8.803-8.865 0-4.894 3.944-8.866 8.803-8.866 4.86 0 8.804 3.972 8.804 8.866 0 4.858-3.944 8.865-8.804 8.865ZM17.712 25V.603H14.12v15.142L0 .106v24.256h3.592V9.468l.14.142L17.713 25ZM123.455.603h-15.071v3.333h5.669v20.426h3.733V3.936h5.669V.603Zm15.74 14.822.071-.035a5.662 5.662 0 0 0 1.091-.674c1.937-1.454 3.099-3.83 3.099-6.418 0-4.255-3.134-7.73-6.972-7.73h-8.31v23.758h3.591v-8.333h3.486l.035.035 5.458 8.298h4.332l-5.881-8.9Zm-3.099-3.014H131.8V4.15h4.296c2.078 0 3.733 1.844 3.733 4.113 0 2.305-1.655 4.15-3.733 4.15ZM79.122.603h-5.845v23.759h5.846c5.704 0 10.211-5.32 10.211-11.88 0-6.525-4.542-11.88-10.212-11.88Zm-.105 20.354h-2.183V4.043h2.183c3.873 0 6.796 3.794 6.796 8.475 0 4.645-2.923 8.44-6.796 8.44Zm-16.092-5.532.07-.035a5.654 5.654 0 0 0 1.092-.674c1.936-1.454 3.099-3.83 3.099-6.418 0-4.255-3.134-7.73-6.973-7.73h-8.31v23.758h3.592v-8.333H58.98l.035.035 5.458 8.298h4.296l-5.845-8.9Zm-3.099-3.014H55.53V4.15h4.296c2.078 0 3.733 1.844 3.733 4.113 0 2.305-1.655 4.15-3.733 4.15Z"></path></svg>