<svg viewBox="0 0 130 22" fill="none" xmlns="http://www.w3.org/2000/svg">
<path d="M129.905 21.0462L123.211 11.5077L129.646 5.78468C129.873 5.56914 129.808 5.29227 129.452 5.29227H125.895C125.669 5.29227 125.572 5.35391 125.345 5.53848L117.94 12.1231V0.36915C117.94 0.0922856 117.843 0 117.552 0H114.706C114.415 0 114.318 0.0922856 114.318 0.36915V21.1694C114.318 21.4463 114.415 21.5385 114.706 21.5385H117.552C117.843 21.5385 117.94 21.4463 117.94 21.1694V16.1847L120.688 13.7539L125.96 21.323C126.057 21.4769 126.154 21.5385 126.38 21.5385H129.711C130.034 21.5385 130.067 21.2924 129.905 21.0462Z" fill="#000000"></path>
<path d="M45.9535 12.0615L43.14 11.5694C41.135 11.2309 40.4235 10.6768 40.4235 9.6307C40.4235 8.4 41.8139 7.60008 43.9807 7.60008C46.2767 7.60008 47.926 8.67686 48.0233 10.277C48.0233 10.4923 48.1525 10.6155 48.3787 10.6155L51.063 10.5539C51.1079 10.5569 51.1529 10.5513 51.1954 10.5372C51.2378 10.5232 51.2769 10.5012 51.3101 10.4724C51.3434 10.4436 51.3702 10.4087 51.3888 10.3698C51.4075 10.3309 51.4177 10.2888 51.4188 10.2461C51.4188 6.98473 48.4435 4.83084 43.9807 4.83084C39.6797 4.83084 36.834 6.80015 36.834 9.75396C36.834 12.3999 38.5154 13.9385 42.0405 14.5538L44.854 15.0462C47.2148 15.446 47.9585 15.9694 47.9585 17.0462C47.9585 18.3692 46.5033 19.2308 44.2395 19.2308C41.7495 19.2308 39.8737 17.9078 39.7119 16.0924C39.6797 15.8768 39.5827 15.7539 39.3562 15.7539L36.6074 15.8155C36.5626 15.8125 36.5176 15.8181 36.4752 15.8321C36.4327 15.8461 36.3937 15.8681 36.3604 15.8969C36.3272 15.9256 36.3004 15.9605 36.2817 15.9993C36.263 16.0382 36.2528 16.0803 36.2517 16.123C36.2517 19.6615 39.4532 22 44.2717 22C48.6375 22 51.548 19.9694 51.548 16.8923C51.548 14.2463 49.7695 12.7078 45.9535 12.0615Z" fill="#000000"></path>
<path d="M26.4535 4.83084C21.2792 4.83084 17.6249 8.4 17.6249 13.4154C17.6249 18.4308 21.2792 22 26.4535 22C31.6277 22 35.282 18.4308 35.282 13.4154C35.282 8.4 31.6278 4.83084 26.4535 4.83084ZM26.4535 18.9846C23.4459 18.9846 21.3117 16.6771 21.3117 13.4154C21.3117 10.1538 23.4459 7.84628 26.4535 7.84628C29.461 7.84628 31.5955 10.1538 31.5955 13.4154C31.5955 16.6771 29.461 18.9846 26.4535 18.9846Z" fill="#000000"></path>
<path d="M9.08733 3.54288e-06H0.387988C0.097004 3.54288e-06 0 0.0922891 0 0.369153V21.1694C0 21.4463 0.097004 21.5385 0.387988 21.5385H3.29851C3.5895 21.5385 3.68649 21.4463 3.68649 21.1694V13.6H9.08733C14.1643 13.6 17.3014 10.9847 17.3014 6.80015C17.3014 2.61533 14.1643 3.54288e-06 9.08733 3.54288e-06ZM8.95778 10.4923H3.68649V3.10773H8.95778C11.8035 3.10773 13.5823 4.523 13.5823 6.80015C13.5823 9.07699 11.8035 10.4923 8.95778 10.4923Z" fill="#000000"></path>
<path d="M62.2843 18.677H58.7595C58.4685 18.677 58.3715 18.5847 58.3715 18.3076V8.09248H61.9933C62.2843 8.09248 62.3816 8.00019 62.3816 7.72303V5.66173C62.3816 5.38456 62.2843 5.29227 61.9933 5.29227H58.3715V0.953842C58.3715 0.64632 58.145 0.523065 57.854 0.64632L55.1375 1.75377C54.8787 1.84606 54.7495 2.0616 54.7495 2.33846V5.29227H52.3562C52.0652 5.29227 51.9682 5.38457 51.9682 5.66173V7.72303C51.9682 8.0002 52.0652 8.09248 52.3562 8.09248H54.7495V17.2614C54.7495 18.8309 55.0727 19.6615 55.6225 20.2769C56.3018 21.0768 57.3687 21.5385 59.2767 21.5385H62.2843C62.5756 21.5385 62.6726 21.4463 62.6726 21.1694V19.0462C62.6726 18.7693 62.5756 18.677 62.2843 18.677Z" fill="#000000"></path>
<path d="M92.974 3.54288e-06H90.1282C89.8369 3.54288e-06 89.7399 0.0922891 89.7399 0.369153V3.10773C89.7399 3.38459 89.8369 3.47688 90.1282 3.47688H92.974C93.2649 3.47688 93.3619 3.38459 93.3619 3.10773V0.36915C93.3619 0.0922887 93.2649 3.54288e-06 92.974 3.54288e-06Z" fill="#000000"></path>
<path d="M112.151 15.1079L109.369 14.8923C109.111 14.8617 109.014 14.9539 108.981 15.2002C108.788 17.3847 106.782 18.9846 104.228 18.9846C101.22 18.9846 99.1182 16.6771 99.1182 13.4154C99.1182 10.2154 101.155 7.84629 104.195 7.84629C106.686 7.84629 108.658 9.44614 108.852 11.6307C108.884 11.8769 108.981 11.9692 109.24 11.9385L112.054 11.723C112.28 11.6923 112.377 11.6 112.377 11.3848C112.086 7.56943 108.658 4.83084 104.163 4.83084C99.0212 4.83084 95.3992 8.40001 95.3992 13.4154C95.3992 18.4308 99.0534 22 104.228 22C108.82 22 112.28 19.2617 112.474 15.4461C112.474 15.2308 112.377 15.1385 112.151 15.1079Z" fill="#000000"></path>
<path d="M92.974 5.29227H90.1282C89.8369 5.29227 89.7399 5.38457 89.7399 5.66173V21.1694C89.7399 21.4463 89.8369 21.5385 90.1282 21.5385H92.974C93.2649 21.5385 93.3619 21.4463 93.3619 21.1694V5.66173C93.3619 5.38456 93.2649 5.29227 92.974 5.29227Z" fill="#000000"></path>
<path d="M74.3794 4.83084C68.5262 4.83084 63.3841 9.90788 63.3841 15.5693C63.3841 19.5692 66.1654 22 70.5959 22C75.1557 22 78.713 19.5386 80.1357 15.5693C80.2327 15.2924 80.1035 15.1692 79.8769 15.1385L76.999 14.8617C76.8694 14.8617 76.7724 14.8617 76.6754 15.0769C75.6729 17.4463 73.3769 18.9232 70.8544 18.9232C68.4936 18.9232 67.0709 17.6309 67.0709 15.2615C67.0709 11.4771 70.4986 7.93856 74.1207 7.93856C76.2874 7.93856 77.8075 9.16927 77.8075 10.8924C77.8067 11.1091 77.785 11.3254 77.7427 11.5384C77.7105 11.7539 77.8075 11.8462 78.0015 11.8462L80.718 11.7539C80.9442 11.7539 81.106 11.6307 81.1382 11.5077C81.2242 11.1338 81.2677 10.7521 81.2677 10.3693C81.2677 7.1693 78.3572 4.83084 74.3794 4.83084Z" fill="#000000"></path>
<path d="M86.3122 3.54288e-06H83.4664C83.1754 3.54288e-06 83.0784 0.0922891 83.0784 0.369153V21.1694C83.0784 21.4463 83.1754 21.5385 83.4664 21.5385H86.3122C86.6035 21.5385 86.7005 21.4463 86.7005 21.1694V0.36915C86.7005 0.0922887 86.6035 3.54288e-06 86.3122 3.54288e-06Z" fill="#000000"></path>
</svg>