<svg viewBox="0 0 148 34" xmlns="http://www.w3.org/2000/svg" fill="none"><g clip-path="url(#a)"><path fill="#000" d="M24.247 25.149h.323v7.457h-1.237c-8.001 0-12.626-4.52-12.626-11.909v-3.816l2.601-.636a4.197 4.197 0 0 0 3.076-3.19 4.14 4.14 0 0 0-1.526-4.14 4.209 4.209 0 0 0-6.776 3.284V28.49H0V11.91c0-.498.035-.995.092-1.492A12.164 12.164 0 0 1 12.28 0a12.256 12.256 0 0 1 11.887 8.822c.74 2.66.497 5.504-.671 8.002a12.06 12.06 0 0 1-4.579 5.145c.67 2.694 2.081 3.191 5.238 3.191l.093-.011ZM45.22 9.354v4.556h-.74c-1.573 0-2.798.44-3.677 1.295a4.706 4.706 0 0 0-1.318 3.526v8.221h-4.417V9.632h4.417v2.243a6.129 6.129 0 0 1 4.995-2.52h.74Zm18.997 10.534H50.806a4.756 4.756 0 0 0 1.769 2.613c.878.636 1.942.96 3.19.96.96 0 1.909-.197 2.776-.613a5.565 5.565 0 0 0 1.989-1.527l2.948 2.579a9.4 9.4 0 0 1-3.41 2.567 10.636 10.636 0 0 1-4.44.902 10.164 10.164 0 0 1-4.926-1.191 8.787 8.787 0 0 1-4.695-7.91c0-1.618.405-3.225 1.203-4.624a8.602 8.602 0 0 1 3.318-3.25 9.482 9.482 0 0 1 4.683-1.179 8.846 8.846 0 0 1 9.111 9.112c0 .52-.035 1.04-.115 1.56h.011Zm-6.244-5.828a4.556 4.556 0 0 0-5.607 0 4.74 4.74 0 0 0-1.62 2.59h8.858a4.74 4.74 0 0 0-1.62-2.59h-.01Zm34.688-3.075a6.336 6.336 0 0 1 1.769 4.694v11.285h-4.428v-9.967c0-1.064-.301-1.92-.925-2.544a3.272 3.272 0 0 0-2.463-.96c-1.076 0-1.966.324-2.637.983a3.436 3.436 0 0 0-1.005 2.59v9.898h-4.417v-9.967c0-1.052-.313-1.896-.937-2.544a3.343 3.343 0 0 0-2.509-.96 3.583 3.583 0 0 0-2.625.983 3.445 3.445 0 0 0-1.006 2.59v9.898h-4.416V9.632h4.405v1.792a6.51 6.51 0 0 1 5.134-2.209 6.765 6.765 0 0 1 3.214.74 5.529 5.529 0 0 1 2.231 2.082 7.018 7.018 0 0 1 5.897-2.822c1.966 0 3.538.579 4.706 1.758l.012.011Zm22.94 7.307a8.674 8.674 0 0 1-2.66 6.475 9.128 9.128 0 0 1-6.648 2.602c-2.648 0-4.856-.868-6.648-2.602a8.673 8.673 0 0 1-2.683-6.475c0-2.578.89-4.74 2.683-6.475a9.141 9.141 0 0 1 6.648-2.602c2.648 0 4.856.868 6.637 2.602a8.672 8.672 0 0 1 2.671 6.475Zm-5.897 3.434a4.699 4.699 0 0 0 1.341-3.434c0-1.364-.451-2.51-1.341-3.423a4.564 4.564 0 0 0-3.399-1.375 4.578 4.578 0 0 0-3.4 1.387 4.973 4.973 0 0 0 0 6.834 4.592 4.592 0 0 0 3.4 1.387c1.364 0 2.497-.462 3.387-1.387l.012.011Zm13.979-8.059v7.203c0 1.48.786 2.22 2.382 2.22a5.535 5.535 0 0 0 2.278-.578v4.117a6.724 6.724 0 0 1-3.238.74c-1.931 0-3.399-.51-4.37-1.55a5.899 5.899 0 0 1-1.469-4.243v-7.909h-2.763V9.632h2.763v-2.89l4.406-1.504v4.394h4.671v4.035h-4.66Zm24.224 6.22h-13.436a4.772 4.772 0 0 0 1.781 2.614c.867.636 1.93.96 3.179.96.96 0 1.908-.197 2.775-.613a5.371 5.371 0 0 0 1.989-1.527l2.96 2.579a9.439 9.439 0 0 1-3.411 2.567 10.673 10.673 0 0 1-4.44.902 10.166 10.166 0 0 1-4.926-1.191 8.794 8.794 0 0 1-4.706-7.91c0-1.618.417-3.213 1.203-4.624a8.613 8.613 0 0 1 3.33-3.238 9.48 9.48 0 0 1 4.683-1.19c2.601 0 4.775.867 6.509 2.601a8.817 8.817 0 0 1 2.602 6.51c0 .52-.035 1.04-.092 1.56Zm-6.233-5.827a4.556 4.556 0 0 0-5.619 0 4.742 4.742 0 0 0-1.607 2.59h8.834a4.744 4.744 0 0 0-1.608-2.59Z"></path></g><defs><clipPath id="a"><path d="M0 0h148v33.531H0z" fill="#fff"></path></clipPath></defs></svg>