<svg viewBox="186.27 181.7 1614.03 191.2" xmlns="http://www.w3.org/2000/svg" xml:space="preserve"><defs><clipPath id="a" clipPathUnits="userSpaceOnUse"><path d="M0 416h1490V0H0Z"></path></clipPath></defs><path style="fill:#000;fill-opacity:1;fill-rule:nonzero;stroke:none" d="m0 0-62.1-35.8v-71.7L0-143.4l62.1 35.9v71.7z" transform="matrix(1.33333 0 0 -1.33333 695 181.7)"></path><path style="fill:#000;fill-opacity:1;fill-rule:nonzero;stroke:none" d="m0 0-56-27L-70-87.7l38.8-48.6h62.2l38.8 48.6L56.1-27z" transform="matrix(1.33333 0 0 -1.33333 491.3 181.7)"></path><path style="fill:#000;fill-opacity:1;fill-rule:nonzero;stroke:none" d="m0 0-56-27L-70-87.7l38.8-48.6h62.2l38.8 48.6L56.1-27z" transform="matrix(1.33333 0 0 -1.33333 279.6 181.7)"></path><g clip-path="url(#a)" transform="matrix(1.33333 0 0 -1.33333 0 554.6)"><path style="fill:#000;fill-opacity:1;fill-rule:nonzero;stroke:none" d="M0 0h17.8c.8-7.2 5.5-10.2 14-10.2 5.8 0 11.5 2.1 11.5 7.5 0 5.7-5.8 6.9-15.6 9.3C15.3 9.5 2.2 13.3 2.2 28.3c0 15.3 12.4 22 28.4 22 15.5 0 27.5-7 28.2-22H41.5c-.7 5.5-5 8.6-11.5 8.6-6.2 0-10.3-2.7-10.3-6.7 0-5 5.5-6.2 16.2-8.6 13.3-3.1 25.3-7.2 25.3-22.5 0-15-12.8-23.3-29.3-23.3C12.9-24.2.4-15.8 0 0" transform="translate(640 194.6)"></path><path style="fill:#000;fill-opacity:1;fill-rule:nonzero;stroke:none" d="M0 0c-.6 6.1-4.4 10-9.7 10-6.2 0-9.4-3.9-10.5-10zm-36.3-5.4c0 15.3 10.7 27 26.3 27 7.3 0 13.1-2.4 17.5-6.4 6.1-5.6 9.1-14.5 9-24.9h-36.8c1-6.9 4.8-11.2 11.5-11.2 4.3 0 7.1 1.9 8.5 5.1h15.9c-1.1-4.6-4.1-9-8.6-12a27 27 0 0 0-16-4.8A25.9 25.9 0 0 0-36.3-5.4" transform="translate(741.1 203.2)"></path><path style="fill:#000;fill-opacity:1;fill-rule:nonzero;stroke:none" d="M0 0h16.8l7-23 2.8-10.4h.2S28-28.2 29.6-23l7 23.1H53L35.3-51.2H17.7Z" transform="translate(755.7 223.3)"></path><path style="fill:#000;fill-opacity:1;fill-rule:nonzero;stroke:none" d="M0 0c-.6 6.1-4.4 10-9.7 10-6.2 0-9.4-3.9-10.5-10zm-36.3-5.4c0 15.3 10.7 27 26.3 27 7.3 0 13.1-2.4 17.5-6.4 6.1-5.6 9.1-14.5 9-24.9h-36.8c1-6.9 4.8-11.2 11.5-11.2 4.3 0 7.1 1.9 8.5 5.1h15.9c-1.1-4.6-4.1-9-8.6-12a27 27 0 0 0-16-4.8A25.9 25.9 0 0 0-36.3-5.4" transform="translate(842.9 203.2)"></path><path style="fill:#000;fill-opacity:1;fill-rule:nonzero;stroke:none" d="M0 0h15.7v-7h.3a18 18 0 0 0 15.8 8.5c11.2 0 17.8-8 17.8-19.4v-33.3H33.3v30c0 5.4-2.7 9.1-8 9.1-5.4 0-9-4.5-9-10.8v-28.3H0z" transform="translate(864 223.3)"></path><path style="fill:#000;fill-opacity:1;fill-rule:nonzero;stroke:none" d="M0 0h17.8c.8-7.2 5.5-10.2 14-10.2 5.8 0 11.5 2.1 11.5 7.5 0 5.7-5.8 6.9-15.6 9.3C15.3 9.5 2.2 13.3 2.2 28.3c0 15.3 12.4 22 28.4 22 15.5 0 27.5-7 28.2-22H41.5c-.7 5.5-5 8.6-11.5 8.6-6.2 0-10.3-2.7-10.3-6.7 0-5 5.5-6.2 16.2-8.6 13.3-3.1 25.3-7.2 25.3-22.5 0-15-12.8-23.3-29.3-23.3C12.9-24.2.4-15.8 0 0" transform="translate(924.8 194.6)"></path><path style="fill:#000;fill-opacity:1;fill-rule:nonzero;stroke:none" d="M0 0c-.6 6.1-4.4 10-9.7 10-6.2 0-9.4-3.9-10.5-10zm-36.3-5.4c0 15.3 10.7 27 26.3 27 7.3 0 13.1-2.4 17.5-6.4 6.1-5.6 9.1-14.5 9-24.9h-36.8c1-6.9 4.8-11.2 11.5-11.2 4.3 0 7.1 1.9 8.5 5.1h15.9c-1.1-4.6-4.1-9-8.6-12a27 27 0 0 0-16-4.8A25.9 25.9 0 0 0-36.3-5.4" transform="translate(1026 203.2)"></path><path style="fill:#000;fill-opacity:1;fill-rule:nonzero;stroke:none" d="M0 0h16.8l7-23 2.8-10.4h.2s1.3 5.2 2.8 10.3l7 23.1H53L35.3-51.2H17.7Z" transform="translate(1040.5 223.3)"></path><path style="fill:#000;fill-opacity:1;fill-rule:nonzero;stroke:none" d="M0 0c-.6 6.1-4.4 10-9.7 10-6.2 0-9.4-3.9-10.5-10zm-36.3-5.4c0 15.3 10.7 27 26.3 27 7.3 0 13.1-2.4 17.5-6.4 6.1-5.6 9.1-14.5 9-24.9h-36.8c1-6.9 4.8-11.2 11.5-11.2 4.3 0 7.1 1.9 8.5 5.1h15.9c-1.1-4.6-4.1-9-8.6-12a27 27 0 0 0-16-4.8A25.9 25.9 0 0 0-36.3-5.4" transform="translate(1127.6 203.2)"></path><path style="fill:#000;fill-opacity:1;fill-rule:nonzero;stroke:none" d="M0 0h15.7v-7h.3a18 18 0 0 0 15.8 8.5c11.2 0 17.8-8 17.8-19.4v-33.3H33.3v30c0 5.4-2.7 9.1-8 9.1-5.4 0-9-4.5-9-10.8v-28.3H0z" transform="translate(1148.8 223.3)"></path><path style="fill:#000;fill-opacity:1;fill-rule:nonzero;stroke:none" d="M0 0h17.8c.8-7.2 5.5-10.2 14-10.2 5.8 0 11.5 2.1 11.5 7.5 0 5.7-5.8 6.9-15.6 9.3C15.3 9.5 2.2 13.3 2.2 28.3c0 15.3 12.4 22 28.4 22 15.5 0 27.5-7 28.2-22H41.5c-.7 5.5-5 8.6-11.5 8.6-6.2 0-10.3-2.7-10.3-6.7 0-5 5.5-6.2 16.2-8.6 13.3-3.1 25.3-7.2 25.3-22.5 0-15-12.8-23.3-29.3-23.3C12.9-24.2.4-15.8 0 0" transform="translate(1209.6 194.6)"></path><path style="fill:#000;fill-opacity:1;fill-rule:nonzero;stroke:none" d="M1275.4 223.3h16.3v-51.2h-16.3zm0 20.3h16.3v-13.2h-16.3z"></path><path style="fill:#000;fill-opacity:1;fill-rule:nonzero;stroke:none" d="m0 0-16.1 24.3H2.5l7.6-13.2h.2l7.2 13.2h17L19.5.2l17.4-27H17.9L9.5-11.7h-.2L0-26.9h-17.8z" transform="translate(1313.3 199)"></path></g></svg>