<svg viewBox="0 0 176 25" xmlns="http://www.w3.org/2000/svg" fill="none"><path fill="#000" d="M.685 7.64h3.162l.737-3.477 4.69-1.528L8.22 7.64h3.9l-.686 3.214H7.535l-1.58 7.324a6.485 6.485 0 0 0-.211 1.634c0 1 .685 1.633 1.686 1.633.79 0 1.58-.158 2.107-.369L8.8 24.45c-.738.158-1.581.369-2.371.369-2.951 0-5.059-1.16-5.059-4.374 0-1.317.263-2.582.58-3.9l1.212-5.69H0L.685 7.64ZM113.871 21.868h-.053c-1.475 1.897-3.004 2.95-5.427 2.95-3.004 0-5.164-1.686-5.164-4.795 0-5.532 6.165-5.954 10.275-5.954h1.528c.105-.474.105-.948.105-1.423 0-1.686-1.844-2.16-3.372-2.16-1.897 0-3.794.474-5.533 1.317l.632-3.477c1.845-.633 3.742-1.002 5.691-1.002 3.373 0 6.534 1.212 6.534 5.164 0 2.266-1.686 8.853-2.055 12.014h-3.688l.527-2.634Zm-4.269-.211c3.267 0 4.269-2.266 4.954-4.953h-1.528c-2.108 0-5.639.369-5.639 3.214 0 1.107 1.107 1.739 2.213 1.739ZM13.91 7.64h4.374l-3.583 16.757h-4.373L13.91 7.641ZM15.493.423h4.373l-.896 4.162h-4.373l.896-4.162ZM31.458 11.487c-.843-.58-2.002-.843-3.214-.843-3.478 0-5.428 3.267-5.428 6.429 0 2.16.738 4.373 3.689 4.373 1.054 0 2.424-.316 3.53-.843l-.474 3.478c-1.317.632-2.793.79-4.215.79-4.321 0-7.114-2.898-7.114-7.219 0-5.849 3.9-10.328 9.906-10.328 1.634 0 3.215.317 4.374.633l-1.054 3.53ZM36.253 0h4.373l-2.898 13.753h.053l6.112-6.112h5.639l-8.01 7.64 5.006 9.169h-4.9l-4.321-8.905h-.053l-1.897 8.905h-4.268L36.253 0ZM65.287 7.64h3.162l.737-3.477 4.69-1.528-1.054 5.006h3.9l-.685 3.214h-3.9l-1.58 7.324a6.484 6.484 0 0 0-.211 1.634c0 1 .685 1.633 1.686 1.633.79 0 1.58-.158 2.108-.369l-.738 3.373c-.738.158-1.581.369-2.371.369-2.951 0-5.059-1.16-5.059-4.374 0-1.317.264-2.582.58-3.9l1.212-5.69h-3.162l.685-3.214Z"></path><path fill="#000" d="M63.811 13.648c0-4.269-2.74-6.376-6.85-6.376-5.532 0-9.537 5.005-9.537 10.222 0 5.006 3.267 7.325 8.062 7.325 1.792 0 3.636-.422 5.322-.949l.58-3.478c-1.634.738-3.373 1.212-5.164 1.212-2.793 0-4.427-1-4.637-3.636v-.632c0-1.16.263-2.266.685-3.32.843-2.16 2.002-3.635 4.584-3.635 1.844 0 2.793 1 2.793 2.792 0 .37-.053.738-.106 1.16H53.59c-.369 1.317-.474 2.213-.474 3.003H63.39c.263-1.212.421-2.424.421-3.688ZM78.618 9.485c.106-.633.264-1.318.37-1.844h4.056l-.368 2.265h.052c1.16-1.739 3.11-2.634 5.164-2.634 2.003 0 4.058 1.159 4.268 3.214h.053c1.107-2.16 3.53-3.214 5.902-3.214 2.529 0 4.637 2.055 4.637 4.584 0 1.475-.369 3.214-.738 4.584l-1.739 8.01h-4.373l1.739-8.168c.21-1 .58-2.582.58-3.583 0-1.212-.95-2.002-2.056-2.002-3.056 0-3.794 3.53-4.32 5.796l-1.74 7.957h-4.373l1.739-8.168c.21-1 .58-2.582.58-3.583 0-1.212-.95-2.002-2.056-2.002-2.95 0-3.794 3.53-4.32 5.796l-1.74 7.957h-4.373l3.056-14.965ZM132.102 11.066c-.474-.264-1.686-.633-2.898-.633-1.318 0-2.951.37-2.951 1.687 0 2.107 5.691 2.898 5.691 7.008 0 4.373-3.794 5.69-7.535 5.69-1.739 0-3.531-.263-5.112-1l.949-3.478c1.212.685 2.476 1.317 4.163 1.317 1.475 0 3.003-.474 3.003-1.844 0-2.688-5.691-2.951-5.691-7.167 0-3.952 3.794-5.322 7.272-5.322 1.581 0 3.214.317 4.11.527l-1.001 3.215ZM134.895 7.64h3.162l.737-3.477 4.69-1.528-1.054 5.006h3.899l-.685 3.214h-3.899l-1.581 7.324a6.507 6.507 0 0 0-.21 1.634c0 1 .685 1.633 1.686 1.633.79 0 1.581-.158 2.107-.369l-.737 3.373c-.738.158-1.581.369-2.371.369-2.951 0-5.059-1.16-5.059-4.374 0-1.317.263-2.582.527-3.9l1.265-5.69h-3.162l.685-3.214ZM164.508 9.906c.106-.737.264-1.475.369-2.265h4.163l-.58 3.161h.053c.79-1.844 2.951-3.53 4.953-3.53.58 0 1.159.052 1.686.158l-.895 4.268a5.662 5.662 0 0 0-1.687-.264c-3.108 0-4.584 2.793-5.163 5.48l-1.581 7.536h-4.374l3.056-14.544ZM161.505 13.648c0-4.269-2.74-6.376-6.85-6.376-5.48 0-9.538 5.005-9.538 10.222 0 5.006 3.267 7.325 8.062 7.325 1.792 0 3.636-.422 5.322-.949l.58-3.478c-1.634.738-3.372 1.212-5.164 1.212-2.793 0-4.426-1-4.637-3.636v-.632c0-1.16.263-2.266.685-3.32.843-2.16 2.002-3.635 4.584-3.635 1.845 0 2.793 1 2.793 2.792 0 .37-.053.738-.105 1.16h-5.955c-.369 1.317-.474 2.213-.474 3.003h10.275c.264-1.212.422-2.424.422-3.688Z"></path></svg>