<svg viewBox="0 0 186 16" xmlns="http://www.w3.org/2000/svg" fill="none"><g clip-path="url(#a)"><path fill="#000" d="m3.148 3.316 6.398 11.623 7.407.005 6.289-11.63 3.151.002V1.208h-9.48v2.106h2.738l-4.58 8.467-4.64-8.465 3.328-.002V1.208H.002L0 3.316h3.148Zm81.51-.006-.002-2.102 12.685.002v2.1h-3.16v9.488h2.93c2.714 0 4.494-1.792 4.494-4.225h2.092v6.354l-19.04.001v-2.127h3.197l-.004-9.49h-3.192Zm-30.829 9.855c-2.326-.041-3.348-2.612-3.304-5.167.046-2.645 1.312-4.952 3.491-4.914 2.18.038 3.33 2.389 3.283 5.033-.044 2.495-1.074 5.092-3.47 5.048ZM53.9.918c-6.369 0-9.752 3.178-9.752 7.165 0 4.042 3.258 7.265 9.79 7.265 6.53 0 9.752-3.223 9.752-7.265 0-3.987-3.419-7.165-9.79-7.165Zm71.436 2.398 6.397 11.623 7.408.005 6.288-11.63 3.152.002V1.208h-9.481v2.106h2.738l-4.578 8.467-4.641-8.465 3.328-.002-.001-2.106h-13.756l-.002 2.108h3.148Zm50.685 9.85c-2.326-.043-3.349-2.613-3.304-5.168.046-2.645 1.312-4.952 3.491-4.914 2.179.038 3.329 2.389 3.282 5.033-.044 2.495-1.074 5.092-3.469 5.048Zm.07-12.248c-6.369 0-9.752 3.178-9.752 7.165 0 4.042 3.257 7.265 9.789 7.265 6.53 0 9.753-3.223 9.753-7.265 0-3.987-3.419-7.165-9.79-7.165Z"></path></g><defs><clipPath id="a"><path d="M0 0h185.88v14.429H0z" transform="translate(0 .919)" fill="#fff"></path></clipPath></defs></svg>