<svg viewBox="0 0 126 50" xmlns="http://www.w3.org/2000/svg" fill="none"><g clip-path="url(#a)"><path fill="#B6B6B6" d="m112.652 6.911-1.362-5.168a.51.51 0 0 0-.354-.358L105.79.017a.494.494 0 0 0-.482.132L101.86 3.61l7.216 7.246 3.448-3.462a.506.506 0 0 0 .131-.484"></path><path fill="#D2D2D2" d="m91.066 14.804 1.364 5.165c.046.175.183.31.354.355l5.146 1.37a.496.496 0 0 0 .482-.13l3.451-3.466-7.215-7.246-3.451 3.465a.505.505 0 0 0-.129.484"></path><path fill="#CBCBCB" d="M97.928.017 92.78 1.388a.499.499 0 0 0-.353.355l-1.365 5.165a.5.5 0 0 0 .13.484l3.452 3.465 7.212-7.242L98.409.148a.501.501 0 0 0-.481-.132Z"></path><path fill="#959595" d="m112.475 14.274-3.399-3.414-7.216 7.246 3.4 3.417a.618.618 0 0 0 .598.16l5.01-1.333a.616.616 0 0 0 .439-.444l1.328-5.03a.63.63 0 0 0-.16-.602Z"></path><path fill="#000" d="m101.859 3.613-7.214 7.244 7.216 7.247 7.214-7.245-7.216-7.246ZM7.158 41.403l-5.126-15.45a.358.358 0 0 0-.336-.246H.499A.496.496 0 0 1 0 25.209v-1.872c0-.274.222-.498.499-.498h7.788c.276 0 .496.224.496.498v1.872c0 .275-.22.498-.496.498h-.986c-.242 0-.41.246-.336.478 0 0 1.918 5.783 2.627 7.935.097.298.547.306.664 0 1.146-2.99 4.212-10.96 4.212-10.96a.498.498 0 0 1 .456-.323h2.314c.165 0 .367.14.439.337l3.947 10.94c.125.347.578.275.67 0 .09-.274 2.644-7.938 2.644-7.938a.35.35 0 0 0-.328-.47h-1.106a.496.496 0 0 1-.498-.497v-1.872c0-.274.222-.498.496-.498h7.087c.353 0 .573.355.481.63-.185.544-.45 1.302-.64 1.894a.492.492 0 0 1-.474.344h-1.143a.355.355 0 0 0-.336.243l-5.223 15.456a.497.497 0 0 1-.473.34h-2.773a.498.498 0 0 1-.467-.328s-3.936-10.898-4.064-11.261c-.117-.32-.556-.306-.67-.012l-4.349 11.281a.5.5 0 0 1-.464.32H7.629a.503.503 0 0 1-.473-.343M47.448 38.922c-1.043.049-1.553-.443-1.553-1.63V28.76c0-3.746-3.124-6.112-6.635-6.112-5.448 0-7.42 2.592-7.64 5.491a.5.5 0 0 0 .5.535h2.678c.26 0 .47-.2.496-.46.148-1.517 1.145-2.616 2.847-2.616 1.878 0 3.009.942 3.009 3.102v1.852h-.97c-3.342 0-5.667.429-7.22 1.413-1.553.985-2.331 2.773-2.331 4.888 0 1.551.535 2.836 1.601 3.855 1.069 1.016 2.3 1.457 3.944 1.457.96 0 1.901-.212 2.824-.641a9.295 9.295 0 0 0 2.371-1.543.359.359 0 0 1 .553.089c.772 1.336 1.59 1.78 3.195 1.78 1.436 0 2.134-1.357 2.755-2.158.222-.286-.031-.784-.424-.767v-.003ZM41.15 37.56c0 .109-.183.28-.265.346-.49.407-.97.716-1.442.925-.516.231-1.009.28-1.49.28-.739 0-1.474-.269-1.964-.807-.493-.538-.738-1.208-.738-2.009 0-1.113.425-1.86 1.257-2.412.829-.553 2.185-.816 3.838-.816h.8v4.493h.004Z"></path><path fill="#000" d="M75.845 14.469c-2.14 0-3.548.678-4.62 1.977-1.068 1.3-1.604 2.742-1.604 5.34v.696c0 .24-.202.357-.344.357H62.02a.498.498 0 0 0-.498.501v1.869c0 .277.222.5.498.5h.388a.36.36 0 0 1 .33.49s-2.644 6.159-3.701 8.617c-.117.272-.525.277-.647 0l-3.74-8.608a.357.357 0 0 1 .326-.498h1.17a.498.498 0 0 0 .5-.501v-1.872a.498.498 0 0 0-.5-.498h-9.563a.5.5 0 0 0-.439.733c.251.466.835 1.56 1.003 1.872.049.091.2.263.42.263h1.427c.137 0 .265.08.322.206l7.065 15.193c.042.094.02.223-.029.343-.068.172-1.325 2.73-1.325 2.73-.681 1.46-1.448 2.713-2.915 2.719-.955 0-1.69-.713-2.04-1.002a.495.495 0 0 0-.665.046c-.256.278-.997 1.045-1.39 1.451-.143.149-.185.478.008.67.795.795 2.1 1.86 3.99 1.934 2.33.092 4.263-1.124 5.38-3.657 0 0 8.099-17.98 9.19-20.439.063-.143.223-.194.314-.194l2.285.003c.197 0 .357.16.357.357v12.477a.463.463 0 0 1-.089.278c-.422.53-1.257 1.583-1.673 2.112a.498.498 0 0 0 .388.813h7.82a.498.498 0 0 0 .498-.501v-1.849a.5.5 0 0 0-.496-.5h-1.347a.355.355 0 0 1-.354-.358v-12.48c0-.198.157-.358.353-.358h2.406a.487.487 0 0 0 .39-.189c.356-.47 1.052-1.388 1.425-1.877a.5.5 0 0 0-.396-.801H74.58a.355.355 0 0 1-.353-.358v-2.773c0-1.35.686-2.69 2.128-2.69 1.616 0 1.875 1.36 1.944 2.421.02.286.256.478.493.478h2.302c.268 0 .47-.263.47-.492 0-3.486-2.2-4.957-5.727-4.957M120.782 22.84c-.248-.132-.869-.192-1.402-.192-2.146 0-3.177.672-4.531 2.595-.199.28-.644.129-.644-.217v-1.689c0-.277-.222-.5-.499-.5h-3.573a.47.47 0 0 0-.368.177s-1.12 1.408-1.487 1.88c-.22.28-.086.813.39.813h.448c.191 0 .356.157.356.358v12.48c0 .071-.02.2-.083.277-.348.435-1.242 1.563-1.681 2.118-.254.32-.023.81.382.81h7.691a.5.5 0 0 0 .499-.501V39.4a.5.5 0 0 0-.499-.5h-1.222a.355.355 0 0 1-.354-.358v-9.33c0-.065.029-.183.051-.226.835-1.585 2.728-2.684 4.13-2.684 1.177 0 1.61.178 2.248.34.265.07.496-.223.496-.5v-2.828c0-.217-.177-.386-.348-.477M105.801 38.902h-1.214a.357.357 0 0 1-.356-.358V23.332a.497.497 0 0 0-.501-.493h-3.56a.494.494 0 0 0-.396.198c-.182.237-1.103 1.4-1.473 1.86-.262.326-.029.813.376.813h.47c.194 0 .345.186.345.357v12.475a.547.547 0 0 1-.085.277c-.4.51-1.249 1.577-1.667 2.11a.499.499 0 0 0 .379.823l1.365-.005h2.351l2.519.005a.432.432 0 0 0 .345-.151l1.459-1.843c.302-.38.068-.856-.351-.856M95.753 38.922c-1.043.049-1.55-.443-1.55-1.63V28.76c0-3.746-3.123-6.112-6.634-6.112-5.449 0-7.42 2.592-7.64 5.491a.5.5 0 0 0 .498.535h2.68c.258 0 .47-.2.495-.46.148-1.517 1.146-2.616 2.847-2.616 1.878 0 3.01.942 3.01 3.102v1.852h-.97c-3.343 0-5.668.429-7.22 1.413-1.554.985-2.332 2.773-2.332 4.888 0 1.551.533 2.836 1.602 3.855 1.068 1.016 2.3 1.457 3.944 1.457.96 0 1.9-.212 2.824-.641a9.293 9.293 0 0 0 2.37-1.543.355.355 0 0 1 .55.089c.773 1.336 1.59 1.78 3.195 1.78 1.436 0 2.135-1.357 2.756-2.158.222-.286-.032-.784-.425-.767v-.003Zm-6.298-1.362c0 .109-.182.28-.265.346-.49.407-.969.716-1.442.925-.516.231-1.011.28-1.49.28-.738 0-1.473-.269-1.963-.807s-.739-1.208-.739-2.009c0-1.113.425-1.86 1.257-2.412.83-.553 2.186-.816 3.839-.816h.8v4.493h.003ZM125.216 25.547h-.267l-.425-.616h-.208v.616h-.225v-1.643h.63c.344 0 .484.258.484.515 0 .243-.122.478-.427.504l.438.624Zm-.9-1.434v.612h.39c.2 0 .274-.151.274-.306 0-.154-.074-.306-.265-.306h-.399Z"></path><path fill="#000" d="M124.587 23.512c.666 0 1.208.544 1.208 1.213 0 .67-.542 1.214-1.208 1.214a1.212 1.212 0 0 1-1.209-1.214c0-.67.542-1.213 1.209-1.213Zm0-.206c-.781 0-1.414.635-1.414 1.42 0 .783.633 1.419 1.414 1.419.78 0 1.413-.636 1.413-1.42 0-.784-.633-1.42-1.413-1.42Z"></path></g><defs><clipPath id="a"><path d="M0 0h126v50H0z" fill="#fff"></path></clipPath></defs></svg>